<svg id="svg" version="1.1" xmlns="http://www.w3.org/2000/svg" xmlns:xlink="http://www.w3.org/1999/xlink" width="400" height="400" viewBox="0, 0, 400,400"><g id="svgg"><path id="path0" d="M192.400 61.600 C 184.191 62.453,180.800 64.069,180.800 67.125 C 180.800 67.746,180.328 67.982,178.300 68.372 C 176.925 68.637,175.080 69.013,174.200 69.207 C 173.320 69.402,171.610 69.773,170.400 70.033 C 164.720 71.251,161.887 72.911,160.641 75.752 C 159.198 79.042,159.022 79.951,159.044 83.998 C 159.093 93.245,162.948 102.422,168.359 106.171 C 170.365 107.562,171.974 107.442,182.146 105.142 C 184.712 104.562,184.637 104.361,184.958 112.732 C 185.106 116.620,185.395 123.400,185.598 127.800 C 186.326 143.519,186.507 149.600,186.247 149.600 C 185.491 149.600,178.654 145.833,176.400 144.175 C 171.872 140.843,170.281 138.563,169.743 134.636 C 169.251 131.050,166.405 133.346,166.401 137.332 C 166.398 141.228,167.948 152.144,168.669 153.312 C 168.907 153.696,170.548 153.547,174.200 152.808 C 175.300 152.586,177.190 152.222,178.400 152.000 C 179.610 151.778,181.410 151.434,182.400 151.235 C 183.390 151.037,185.190 150.678,186.400 150.438 C 187.610 150.198,189.320 149.839,190.200 149.640 C 191.080 149.441,192.700 149.075,193.800 148.825 C 199.468 147.540,199.425 147.518,201.861 152.800 C 210.066 170.592,205.164 185.540,190.600 187.137 L 188.200 187.400 188.215 197.800 C 188.224 203.520,188.458 213.870,188.737 220.800 C 189.015 227.730,189.399 237.630,189.589 242.800 C 189.990 253.670,189.862 252.400,190.551 252.400 C 190.855 252.400,191.329 251.853,191.606 251.185 C 192.209 249.729,193.113 249.185,194.200 249.622 C 195.569 250.173,195.762 250.056,197.200 247.800 C 198.335 246.020,198.807 245.604,199.691 245.602 C 200.737 245.600,202.400 243.264,202.400 241.797 C 202.400 240.898,205.137 238.173,206.948 237.269 C 207.967 236.760,208.800 236.168,208.800 235.953 C 208.800 235.505,212.018 228.805,213.100 227.000 C 213.496 226.340,214.605 224.450,215.566 222.800 C 216.526 221.150,217.532 219.530,217.801 219.200 C 218.312 218.573,218.591 215.466,219.994 194.800 C 220.196 191.830,220.370 189.290,220.380 189.156 C 220.391 189.022,224.135 188.700,228.700 188.441 C 240.884 187.751,248.450 186.843,255.900 185.180 C 256.835 184.971,258.455 184.609,259.500 184.375 C 286.716 178.283,303.954 164.438,309.271 144.400 C 314.177 125.909,310.200 104.207,299.340 90.200 C 285.201 71.966,263.163 63.773,227.400 63.457 C 223.880 63.425,218.264 63.560,214.921 63.755 C 209.291 64.084,208.685 64.050,206.721 63.302 C 202.048 61.521,197.897 61.028,192.400 61.600 M244.155 101.230 C 249.034 101.807,255.783 102.758,258.000 103.182 C 258.990 103.371,260.790 103.709,262.000 103.933 C 276.563 106.624,288.344 113.878,290.625 121.559 C 293.073 129.802,282.170 141.033,265.300 147.647 C 264.805 147.841,263.995 148.168,263.500 148.374 C 260.543 149.602,251.006 152.377,247.100 153.147 C 238.266 154.887,233.543 155.528,227.042 155.867 L 222.283 156.115 222.552 151.357 C 222.958 144.197,223.547 130.689,223.982 118.600 C 224.196 112.660,224.494 106.225,224.645 104.300 L 224.919 100.800 232.714 100.800 C 237.001 100.800,242.150 100.994,244.155 101.230 M261.930 236.475 C 261.839 240.459,261.656 242.182,261.314 242.296 C 260.945 242.418,260.938 242.632,261.286 243.188 C 263.243 246.323,258.207 257.531,252.462 262.825 C 248.962 266.050,249.081 266.207,253.273 263.895 C 260.830 259.727,265.383 253.997,266.294 247.506 C 266.409 246.684,266.750 245.807,267.052 245.557 C 267.353 245.307,267.600 244.685,267.600 244.175 C 267.600 243.665,267.803 243.122,268.051 242.968 C 268.357 242.779,268.282 242.566,267.819 242.306 C 267.020 241.860,267.313 232.451,268.142 231.922 C 268.854 231.466,268.357 231.324,265.130 231.063 L 262.060 230.815 261.930 236.475 M312.615 231.500 C 312.780 231.885,313.120 232.955,313.371 233.878 C 313.621 234.801,314.257 235.929,314.783 236.386 L 315.740 237.215 316.870 236.133 C 318.809 234.275,317.876 232.082,314.767 231.190 C 312.751 230.612,312.264 230.682,312.615 231.500 M322.233 231.700 C 322.133 232.195,321.950 233.482,321.825 234.560 C 321.525 237.156,321.085 237.600,318.810 237.600 L 316.917 237.600 317.105 239.548 C 317.340 241.995,316.979 242.217,314.414 241.206 C 310.966 239.846,311.199 239.228,311.206 249.700 C 311.209 254.815,311.344 259.191,311.506 259.425 C 312.048 260.208,315.559 258.901,315.832 257.815 C 316.391 255.589,324.145 255.756,324.460 258.000 C 324.585 258.892,324.781 258.996,326.278 258.967 C 329.176 258.910,329.200 258.842,329.200 250.584 C 329.200 245.106,329.326 243.215,329.700 243.062 C 330.252 242.836,327.903 240.586,326.688 240.178 C 325.768 239.869,322.941 242.215,323.824 242.554 C 324.660 242.875,324.612 246.233,323.767 246.557 C 323.419 246.691,321.814 246.800,320.200 246.800 C 316.169 246.800,316.000 246.701,316.000 244.357 L 316.000 242.400 318.027 242.400 C 319.792 242.400,320.025 242.308,319.827 241.684 C 319.675 241.206,320.130 240.382,321.200 239.200 C 322.080 238.228,322.812 237.155,322.828 236.816 C 322.843 236.477,323.923 235.339,325.228 234.287 C 328.111 231.962,328.132 231.780,325.580 231.233 C 322.770 230.630,322.440 230.677,322.233 231.700 M300.493 233.280 C 301.038 234.226,301.812 235.900,302.211 237.000 C 303.365 240.177,304.959 241.013,306.538 239.269 C 308.589 237.002,305.377 232.945,300.650 231.831 L 299.500 231.560 300.493 233.280 M327.200 236.000 L 325.933 237.600 329.166 237.600 C 332.860 237.600,332.958 237.480,330.736 235.700 C 328.705 234.073,328.728 234.071,327.200 236.000 M276.400 240.800 L 274.726 242.800 278.763 242.800 C 283.405 242.800,283.531 242.650,280.748 240.434 C 278.208 238.412,278.414 238.394,276.400 240.800 M302.201 243.434 C 301.397 244.489,301.226 244.986,301.554 245.314 C 302.058 245.818,302.185 257.901,301.694 258.646 C 301.532 258.892,300.680 259.470,299.800 259.931 C 296.874 261.464,296.933 261.314,298.377 263.564 C 300.061 266.189,299.986 266.218,302.400 262.000 C 304.700 257.980,305.434 257.592,306.741 259.700 C 309.662 264.410,312.172 265.367,322.035 265.529 L 329.869 265.658 330.855 263.666 L 331.842 261.673 322.621 261.501 C 312.639 261.315,310.316 260.917,307.700 258.941 L 306.400 257.959 306.400 252.000 C 306.400 246.752,306.484 245.989,307.100 245.616 C 307.724 245.238,307.603 245.018,306.000 243.597 C 303.797 241.645,303.573 241.635,302.201 243.434 M268.000 247.103 C 268.000 250.873,272.140 259.684,275.605 263.289 C 278.444 266.244,278.989 266.496,279.357 265.031 C 279.664 263.804,281.499 261.600,282.212 261.600 C 283.685 261.600,282.921 260.713,280.305 259.387 C 275.222 256.809,271.008 252.706,269.124 248.500 C 268.411 246.909,268.000 246.398,268.000 247.103 M324.400 249.167 C 324.400 250.349,324.201 251.226,323.900 251.367 C 323.500 251.553,323.500 251.647,323.900 251.833 C 324.201 251.974,324.400 252.851,324.400 254.033 L 324.400 256.000 320.200 256.000 L 316.000 256.000 316.000 254.000 C 316.000 252.489,316.147 252.000,316.600 252.000 C 316.930 252.000,317.200 251.820,317.200 251.600 C 317.200 251.380,316.930 251.200,316.600 251.200 C 316.147 251.200,316.000 250.711,316.000 249.200 L 316.000 247.200 320.200 247.200 L 324.400 247.200 324.400 249.167 M275.816 286.206 L 274.346 288.000 261.873 288.084 C 252.322 288.148,250.798 288.218,255.367 288.384 C 259.959 288.550,261.377 288.728,261.519 289.155 C 261.776 289.928,255.761 295.586,253.475 296.724 C 251.037 297.936,251.023 297.977,252.180 300.594 C 253.046 302.552,253.270 302.790,253.919 302.443 C 254.329 302.224,256.630 301.592,259.034 301.038 C 261.437 300.485,265.728 299.395,268.570 298.616 C 275.036 296.844,274.550 296.794,276.217 299.400 C 277.862 301.972,279.451 302.410,280.626 300.616 C 282.524 297.720,277.729 293.064,271.899 292.140 L 270.200 291.871 271.700 293.537 C 273.280 295.291,273.475 295.783,272.766 296.221 C 272.275 296.524,257.924 297.658,257.679 297.412 C 257.268 297.001,258.321 296.233,260.942 295.033 C 262.514 294.313,264.655 293.178,265.700 292.511 C 267.750 291.204,267.713 290.976,265.300 290.019 C 262.073 288.739,263.830 288.400,273.695 288.400 C 283.154 288.400,282.970 288.494,279.041 285.673 L 277.286 284.412 275.816 286.206 M301.291 288.166 C 300.798 290.237,299.861 293.242,299.209 294.844 C 298.557 296.446,298.098 297.831,298.189 297.922 C 298.509 298.242,302.766 293.908,304.253 291.748 C 306.457 288.549,307.286 288.839,308.124 293.100 C 308.378 294.392,308.370 294.400,306.790 294.400 C 304.944 294.400,304.955 294.378,305.999 296.090 C 307.365 298.332,307.165 298.549,304.000 298.255 L 301.200 297.994 301.200 309.049 L 301.200 320.104 303.049 319.896 C 305.616 319.606,305.587 319.731,305.594 308.887 C 305.601 298.304,305.677 297.972,307.794 299.359 C 308.780 300.005,308.783 300.026,308.891 307.503 L 309.000 315.000 310.350 314.936 C 312.517 314.832,312.906 314.128,312.839 310.437 C 312.791 307.778,312.889 307.200,313.390 307.200 C 313.726 307.200,314.000 307.020,314.000 306.800 C 314.000 306.580,313.721 306.400,313.379 306.400 C 311.877 306.400,312.820 302.217,314.355 302.071 C 317.413 301.778,319.285 304.950,316.900 306.380 C 316.233 306.780,316.233 306.820,316.900 307.220 C 317.654 307.672,317.885 310.531,317.248 311.536 C 316.264 313.089,318.211 314.434,320.159 313.546 C 321.511 312.930,321.550 312.757,321.625 306.971 L 321.690 301.902 320.545 300.965 C 319.132 299.809,318.719 299.785,317.800 300.800 C 316.896 301.799,313.226 301.904,311.049 300.995 C 309.507 300.351,309.222 299.612,310.200 298.800 C 311.086 298.065,310.931 296.895,309.800 295.764 C 308.592 294.555,308.569 294.400,309.600 294.400 C 311.667 294.400,312.448 292.411,310.964 290.928 C 309.620 289.583,310.166 289.214,313.513 289.206 C 316.546 289.199,316.690 289.430,315.608 292.577 C 315.162 293.872,314.860 294.994,314.937 295.070 C 315.189 295.322,318.333 292.632,319.811 290.900 C 320.609 289.965,321.437 289.200,321.652 289.200 C 322.162 289.200,323.200 291.707,323.200 292.938 C 323.200 293.493,323.582 294.158,324.100 294.504 C 324.976 295.089,324.980 295.127,324.268 295.919 C 323.690 296.562,323.627 296.903,323.968 297.540 C 324.237 298.043,324.400 301.441,324.400 306.545 C 324.400 315.094,324.225 316.000,322.571 316.000 C 321.828 316.000,321.842 316.571,322.600 317.200 C 322.930 317.474,323.200 318.132,323.200 318.662 C 323.200 319.913,324.085 320.221,326.016 319.643 C 328.736 318.828,328.800 318.565,328.800 308.200 C 328.800 300.654,328.909 298.822,329.399 298.122 C 329.964 297.316,329.906 297.193,328.400 296.000 C 326.918 294.826,326.819 294.624,327.042 293.228 C 327.245 291.956,327.133 291.605,326.320 290.962 C 325.791 290.543,325.238 289.885,325.091 289.500 C 324.919 289.046,324.399 288.800,323.613 288.800 C 322.202 288.800,321.841 287.153,323.097 286.450 C 323.968 285.962,323.893 285.908,321.165 285.079 C 317.872 284.079,317.792 284.110,317.235 286.600 C 316.655 289.193,316.472 289.240,314.202 287.381 L 312.470 285.961 311.388 287.381 C 310.438 288.626,310.090 288.800,308.553 288.800 C 306.641 288.800,306.157 287.900,307.400 286.657 C 308.278 285.779,308.199 285.690,305.927 285.015 C 302.272 283.930,302.304 283.908,301.291 288.166 M327.500 287.384 C 326.000 289.192,326.007 289.200,329.376 289.200 C 332.966 289.200,333.252 288.897,331.212 287.257 C 329.279 285.704,328.882 285.718,327.500 287.384 M262.755 304.068 C 262.730 305.901,262.685 309.650,262.655 312.400 L 262.600 317.400 255.400 317.614 C 250.421 317.762,253.535 317.855,265.500 317.914 C 275.015 317.961,282.800 317.863,282.800 317.695 C 282.800 317.318,278.586 313.995,278.130 314.012 C 277.949 314.019,277.189 314.836,276.442 315.827 L 275.084 317.629 271.642 317.515 L 268.200 317.400 268.086 313.300 C 268.023 311.045,268.150 308.867,268.367 308.461 C 268.634 307.962,268.623 307.583,268.333 307.293 C 268.077 307.037,267.970 305.806,268.069 304.253 L 268.235 301.642 266.618 301.400 C 265.728 301.266,264.505 301.063,263.900 300.947 L 262.800 300.736 262.755 304.068 M274.000 306.000 L 272.326 308.000 276.463 307.984 L 280.600 307.967 279.200 306.755 C 278.430 306.087,277.322 305.195,276.738 304.770 L 275.675 303.999 274.000 306.000 " stroke="none" fill="#0605d7" fill-rule="evenodd"></path><path id="path1" d="M96.400 147.015 C 85.929 148.520,83.538 149.932,84.361 154.122 C 86.093 162.939,86.354 167.512,85.140 167.744 C 83.752 168.009,77.994 168.941,67.314 170.628 C 65.684 170.885,65.370 171.404,66.036 172.738 C 67.239 175.149,67.368 175.200,72.262 175.200 C 77.525 175.200,77.825 175.476,75.167 177.878 L 73.534 179.353 75.167 180.710 C 76.942 182.184,77.160 182.939,76.136 184.071 C 75.252 185.047,75.424 185.158,79.070 185.971 C 84.553 187.194,86.505 187.976,86.235 188.844 C 86.106 189.260,85.889 189.962,85.752 190.404 C 85.557 191.039,85.755 191.296,86.694 191.623 C 88.075 192.104,88.109 192.361,88.823 207.800 C 89.787 228.664,90.060 236.968,91.200 280.200 C 92.089 313.921,92.971 335.131,93.506 335.666 C 94.414 336.574,97.600 330.988,97.600 328.487 C 97.600 327.579,98.832 327.028,99.680 327.557 C 100.617 328.142,100.472 328.267,103.107 324.600 C 104.747 322.319,105.704 321.452,108.279 319.921 C 112.272 317.546,112.467 317.308,113.796 313.200 C 115.436 308.133,115.937 307.200,117.017 307.200 C 118.350 307.200,119.194 306.164,119.240 304.471 C 119.306 302.047,119.755 300.989,120.679 301.086 C 121.750 301.199,121.782 300.926,123.213 279.400 C 123.418 276.320,123.772 271.190,123.999 268.000 C 124.226 264.810,124.573 259.525,124.770 256.256 C 124.968 252.986,125.280 250.160,125.464 249.976 C 125.852 249.590,127.726 249.067,138.225 246.419 C 148.775 243.757,157.005 240.130,158.805 237.349 C 159.742 235.901,160.034 235.751,163.800 234.793 C 168.609 233.570,168.800 233.464,168.800 232.010 C 168.800 231.010,169.265 230.561,172.500 228.430 C 175.686 226.332,176.075 225.960,175.300 225.750 C 173.716 225.322,173.848 225.203,179.000 222.398 C 180.320 221.680,181.463 221.038,181.539 220.973 C 181.616 220.908,181.909 219.357,182.190 217.527 C 182.472 215.697,183.080 213.390,183.542 212.400 C 184.971 209.339,185.189 209.445,178.100 209.751 C 157.652 210.634,152.941 210.908,139.600 211.986 C 136.850 212.208,132.906 212.510,130.836 212.657 L 127.071 212.925 127.338 204.563 C 127.694 193.402,127.923 191.278,128.806 190.998 C 129.189 190.877,132.989 190.595,137.251 190.373 C 141.513 190.151,147.610 189.802,150.800 189.598 C 153.990 189.393,159.570 189.039,163.200 188.811 C 166.830 188.583,172.590 188.217,176.000 187.997 C 179.410 187.778,184.180 187.500,186.600 187.379 C 203.409 186.540,209.581 175.450,203.432 157.133 C 200.964 149.782,198.976 147.328,196.319 148.355 C 195.813 148.550,194.410 148.919,193.200 149.175 C 191.990 149.430,190.280 149.796,189.400 149.987 C 188.520 150.178,186.720 150.544,185.400 150.800 C 184.080 151.056,182.280 151.420,181.400 151.609 C 180.520 151.798,177.730 152.332,175.200 152.797 C 172.670 153.262,169.970 153.802,169.200 153.997 C 168.430 154.192,166.630 154.556,165.200 154.806 C 163.770 155.056,161.790 155.413,160.800 155.600 C 159.810 155.787,157.830 156.147,156.400 156.400 C 154.970 156.653,152.990 157.019,152.000 157.213 C 151.010 157.406,147.860 157.937,145.000 158.391 C 142.140 158.846,138.765 159.394,137.500 159.609 C 136.235 159.824,134.165 160.169,132.900 160.375 C 131.635 160.581,129.312 160.967,127.737 161.232 C 124.131 161.839,123.928 161.750,122.560 158.955 C 119.601 152.907,113.012 148.537,104.800 147.178 C 100.929 146.537,99.869 146.517,96.400 147.015 " stroke="none" fill="#fb0405" fill-rule="evenodd"></path><path id="path2" d="M0.000 200.000 L 0.000 400.000 200.000 400.000 L 400.000 400.000 400.000 200.000 L 400.000 0.000 200.000 0.000 L 0.000 0.000 0.000 200.000 M203.056 61.615 C 204.729 62.063,206.719 62.690,207.477 63.007 C 208.642 63.493,210.175 63.518,217.328 63.165 C 278.225 60.164,311.157 82.940,311.360 128.200 C 311.497 158.626,295.237 176.306,259.200 184.912 C 250.775 186.924,237.093 188.800,230.847 188.800 C 229.349 188.800,226.500 188.915,224.517 189.056 L 220.912 189.312 220.665 192.756 C 220.529 194.650,220.148 200.160,219.818 205.000 C 219.487 209.840,219.141 214.824,219.049 216.075 C 218.900 218.079,218.463 219.054,215.390 224.229 C 213.470 227.462,211.223 231.568,210.397 233.353 C 209.007 236.358,208.705 236.721,206.347 238.224 C 203.960 239.747,203.725 240.035,202.598 242.821 C 201.545 245.425,201.251 245.818,200.225 245.996 C 199.368 246.145,198.641 246.791,197.518 248.400 C 196.674 249.610,195.762 250.561,195.491 250.513 C 195.221 250.465,194.544 250.316,193.986 250.182 C 193.132 249.978,192.818 250.180,191.983 251.470 C 189.582 255.180,189.482 254.556,188.618 230.600 C 187.985 213.033,187.211 190.074,187.204 188.645 C 187.200 187.818,184.291 187.843,170.000 188.791 C 160.775 189.404,140.497 190.678,132.800 191.130 L 128.200 191.400 127.920 201.786 C 127.765 207.499,127.695 212.228,127.763 212.296 C 127.876 212.410,130.041 212.261,144.200 211.166 C 152.735 210.506,162.033 209.999,169.400 209.793 C 173.360 209.682,178.445 209.533,180.700 209.461 C 185.483 209.310,185.661 209.527,183.783 213.233 C 183.143 214.497,182.679 216.233,182.530 217.920 C 182.245 221.146,182.070 221.370,178.256 223.384 C 175.486 224.848,174.796 225.600,176.224 225.600 C 177.376 225.600,176.699 226.249,172.886 228.800 C 169.475 231.082,169.015 231.526,169.120 232.434 C 169.271 233.733,168.753 234.120,166.000 234.765 C 160.424 236.072,159.815 236.339,159.017 237.820 C 158.082 239.557,146.058 245.600,143.538 245.600 C 143.124 245.600,141.394 245.974,139.693 246.431 C 137.992 246.888,134.530 247.788,132.000 248.432 C 129.470 249.076,127.022 249.766,126.560 249.966 C 125.641 250.362,125.606 250.611,124.786 262.700 C 124.052 273.528,123.609 279.821,123.189 285.400 C 122.957 288.480,122.663 293.493,122.537 296.541 L 122.307 302.081 121.153 301.851 C 120.206 301.661,120.000 301.756,120.000 302.379 C 120.000 305.151,119.089 307.107,117.590 307.556 C 115.958 308.045,115.920 308.110,114.193 313.400 C 112.846 317.528,112.554 317.932,109.748 319.572 C 105.933 321.801,104.895 322.703,103.132 325.319 C 101.284 328.061,100.838 328.485,100.100 328.196 C 99.825 328.088,99.345 327.897,99.033 327.770 C 98.612 327.599,98.198 328.404,97.418 330.907 C 96.374 334.254,94.233 337.238,93.292 336.657 C 92.521 336.181,91.678 315.359,90.407 265.400 C 89.954 247.628,89.383 230.388,88.804 217.000 C 87.624 189.741,87.862 192.000,86.164 192.000 C 84.893 192.000,84.618 191.243,85.365 189.802 C 86.053 188.475,85.949 188.173,84.706 187.888 C 84.208 187.773,82.810 187.419,81.600 187.100 C 80.390 186.780,78.365 186.284,77.100 185.996 C 74.515 185.407,74.465 185.333,75.653 183.823 L 76.506 182.739 74.791 180.991 L 73.076 179.244 74.538 177.782 C 75.342 176.978,76.000 176.275,76.000 176.221 C 76.000 176.166,74.133 176.007,71.851 175.868 C 66.753 175.556,66.741 175.551,65.891 173.589 C 64.687 170.810,64.816 170.621,68.300 170.060 C 70.005 169.786,72.390 169.397,73.600 169.196 C 74.810 168.995,77.060 168.631,78.600 168.388 C 80.140 168.145,82.367 167.744,83.549 167.497 L 85.697 167.049 85.455 164.824 C 85.174 162.249,84.599 158.039,84.060 154.600 C 83.302 149.762,84.373 148.955,94.400 146.806 C 101.922 145.194,112.119 147.564,117.897 152.268 C 119.494 153.567,123.189 158.287,123.209 159.051 C 123.248 160.596,124.595 161.176,127.200 160.770 C 128.630 160.547,130.880 160.201,132.200 160.000 C 133.520 159.799,135.770 159.439,137.200 159.200 C 138.630 158.961,140.880 158.601,142.200 158.400 C 144.659 158.026,148.403 157.389,151.600 156.800 C 152.590 156.618,154.480 156.281,155.800 156.052 C 157.120 155.824,159.190 155.448,160.400 155.218 C 161.610 154.988,163.661 154.629,164.958 154.422 C 167.937 153.945,168.133 153.737,167.654 151.559 C 165.860 143.412,165.557 135.708,166.947 133.608 C 168.618 131.083,170.400 131.923,170.400 135.235 C 170.400 137.821,173.317 141.602,177.477 144.410 C 179.779 145.964,185.618 148.915,185.877 148.656 C 185.984 148.549,185.876 144.353,185.636 139.331 C 185.397 134.309,185.025 126.240,184.811 121.400 C 184.182 107.234,184.021 105.599,183.258 105.607 C 181.937 105.622,175.780 106.829,173.734 107.473 C 162.665 110.963,152.898 82.294,162.035 73.132 C 164.252 70.909,168.766 69.485,178.900 67.811 C 179.883 67.649,180.400 67.350,180.400 66.942 C 180.400 65.510,181.683 63.685,183.121 63.071 C 188.010 60.984,197.984 60.256,203.056 61.615 M225.047 105.240 C 224.916 107.528,224.618 114.710,224.385 121.200 C 224.153 127.690,223.701 138.025,223.381 144.167 C 223.062 150.309,222.884 155.418,222.987 155.520 C 223.089 155.622,225.834 155.505,229.086 155.259 C 260.985 152.850,289.398 138.604,290.325 124.555 C 291.159 111.905,267.908 102.259,234.343 101.330 L 225.285 101.079 225.047 105.240 M267.900 230.639 C 269.182 230.833,269.558 231.477,268.825 232.220 C 268.618 232.429,268.393 234.580,268.325 237.000 L 268.200 241.400 271.467 241.516 L 274.734 241.631 276.252 239.816 C 278.149 237.545,278.325 237.553,281.443 240.034 C 285.626 243.363,285.239 243.587,275.268 243.595 L 268.336 243.600 268.610 244.900 C 269.820 250.654,274.372 255.620,281.982 259.490 C 284.571 260.807,284.835 261.323,283.255 261.977 C 281.811 262.575,280.590 263.838,280.033 265.310 C 278.366 269.710,270.984 260.885,268.318 251.303 C 267.252 247.474,267.062 247.334,266.417 249.900 C 264.919 255.854,259.908 261.377,252.763 264.948 C 246.269 268.194,245.036 267.743,250.033 263.950 C 256.147 259.310,260.800 251.006,260.800 244.736 L 260.800 243.600 254.700 243.594 C 248.472 243.588,247.299 243.362,247.725 242.250 C 247.929 241.719,248.988 241.603,254.484 241.510 L 261.000 241.400 261.113 236.226 C 261.259 229.498,261.121 229.611,267.900 230.639 M316.330 231.093 C 318.625 232.175,319.202 233.730,318.197 236.129 C 317.932 236.763,318.068 236.842,319.239 236.729 C 320.770 236.582,321.026 236.062,321.418 232.300 C 321.696 229.627,321.612 229.656,326.189 230.662 C 329.267 231.338,329.938 231.977,328.421 232.789 C 326.392 233.874,323.936 236.401,324.645 236.673 C 325.153 236.867,325.739 236.483,326.783 235.270 C 328.562 233.204,328.787 233.204,331.228 235.263 C 334.510 238.030,334.138 238.400,328.078 238.400 L 322.957 238.400 321.600 239.800 L 320.243 241.200 322.052 241.200 C 323.464 241.200,324.067 240.981,324.800 240.200 C 326.020 238.901,326.477 238.937,328.596 240.500 C 330.538 241.931,331.040 242.720,330.413 243.347 C 330.161 243.599,330.000 246.462,330.000 250.706 C 330.000 258.425,329.856 258.980,327.695 259.580 C 324.860 260.368,324.068 260.169,323.774 258.600 L 323.511 257.200 320.250 257.200 C 317.253 257.200,316.958 257.273,316.595 258.100 C 316.378 258.594,315.588 259.286,314.841 259.638 C 312.732 260.628,314.099 260.788,324.700 260.795 C 334.447 260.800,334.818 260.881,332.667 262.522 C 331.932 263.083,331.162 264.136,330.951 264.870 L 330.569 266.200 322.784 266.200 C 312.637 266.200,310.073 265.368,306.812 261.016 C 305.079 258.704,305.044 258.722,302.620 263.114 C 300.215 267.473,300.074 267.509,298.018 264.300 C 295.970 261.102,295.963 261.144,298.800 259.632 L 301.200 258.353 301.200 252.177 L 301.200 246.000 299.900 245.995 C 297.821 245.986,296.800 245.577,296.800 244.753 C 296.800 244.107,297.112 244.000,298.986 244.000 C 300.733 244.000,301.254 243.846,301.583 243.231 C 301.810 242.808,302.298 242.160,302.668 241.790 C 303.215 241.242,303.251 240.974,302.861 240.349 C 302.598 239.927,301.998 238.551,301.529 237.291 C 301.059 236.031,300.253 234.329,299.737 233.508 C 298.153 230.986,298.646 230.419,301.580 231.393 C 304.076 232.222,306.593 234.040,307.396 235.592 C 307.992 236.746,308.136 236.800,310.587 236.800 C 312.999 236.800,314.125 236.372,313.207 235.804 C 312.983 235.666,312.800 235.104,312.800 234.557 C 312.800 234.009,312.517 233.013,312.171 232.344 C 310.915 229.915,312.694 229.380,316.330 231.093 M307.378 239.433 C 306.944 240.010,306.005 240.587,305.255 240.739 L 303.909 241.011 306.355 242.932 C 309.027 245.031,309.192 245.348,308.000 246.093 C 307.261 246.554,307.200 247.026,307.200 252.288 L 307.200 257.984 308.762 258.780 C 310.852 259.847,310.800 260.094,310.800 249.034 C 310.800 238.276,310.553 238.992,313.835 240.228 L 316.400 241.193 316.400 239.797 L 316.400 238.400 312.278 238.400 C 308.313 238.400,308.127 238.439,307.378 239.433 M316.800 244.600 L 316.800 246.000 320.200 246.000 L 323.600 246.000 323.600 244.600 L 323.600 243.200 320.200 243.200 L 316.800 243.200 316.800 244.600 M316.875 249.300 L 317.000 250.600 320.300 250.716 L 323.600 250.832 323.600 249.416 L 323.600 248.000 320.175 248.000 L 316.749 248.000 316.875 249.300 M316.956 252.971 C 316.210 254.915,316.840 255.394,320.300 255.516 L 323.600 255.632 323.600 254.016 L 323.600 252.400 320.387 252.400 C 317.974 252.400,317.120 252.542,316.956 252.971 M306.743 284.438 C 309.146 285.020,309.719 285.761,308.453 286.648 C 307.264 287.481,307.390 288.000,308.780 288.000 C 309.658 288.000,310.232 287.642,311.027 286.600 C 312.324 284.900,312.423 284.893,314.139 286.400 C 315.917 287.961,316.312 287.914,316.613 286.100 C 317.045 283.500,317.067 283.476,318.803 283.754 C 322.951 284.417,325.577 285.956,324.000 286.800 C 322.782 287.452,323.043 288.000,324.570 288.000 C 325.656 288.000,326.267 287.656,327.519 286.340 L 329.099 284.680 331.327 286.440 C 334.770 289.159,334.297 289.984,329.291 289.995 L 326.782 290.000 327.436 290.998 C 327.871 291.662,328.011 292.432,327.855 293.298 C 327.644 294.467,327.783 294.721,329.210 295.777 C 330.923 297.044,331.140 297.620,330.200 298.400 C 329.699 298.816,329.600 300.405,329.600 308.069 C 329.600 318.647,329.485 319.119,326.660 320.198 C 324.015 321.208,323.103 320.926,322.462 318.900 C 322.110 317.787,321.523 316.964,320.762 316.514 C 319.145 315.559,319.302 315.263,321.500 315.122 L 323.400 315.000 323.508 306.500 L 323.616 298.000 318.708 297.995 C 316.009 297.992,313.395 297.881,312.900 297.748 C 311.783 297.449,311.713 296.168,312.798 295.885 C 313.573 295.682,314.771 293.432,315.345 291.100 L 315.615 290.000 313.379 290.000 C 311.346 290.000,311.200 290.057,311.771 290.629 C 312.964 291.821,312.355 294.348,310.746 294.885 C 310.422 294.993,310.505 295.388,311.011 296.161 C 311.636 297.114,311.674 297.468,311.268 298.540 C 310.417 300.788,315.965 302.028,317.800 300.000 C 318.771 298.927,319.220 298.986,321.028 300.422 L 322.565 301.644 322.461 306.922 C 322.335 313.287,322.317 313.359,320.625 314.161 C 318.601 315.122,317.254 314.995,316.800 313.800 C 316.217 312.267,313.200 312.488,313.200 314.063 C 313.200 314.995,310.845 316.106,309.259 315.923 L 308.200 315.800 308.091 308.230 C 307.987 301.042,307.763 299.600,306.751 299.600 C 306.558 299.600,306.400 303.997,306.400 309.371 C 306.400 320.388,306.460 320.162,303.400 320.621 C 300.194 321.102,300.375 321.829,300.494 308.910 L 300.600 297.400 303.100 297.530 C 305.908 297.676,306.126 297.403,304.800 295.400 C 303.725 293.776,303.781 293.600,305.376 293.600 C 307.044 293.600,307.359 293.172,307.019 291.363 C 306.716 289.746,306.341 289.876,304.947 292.085 C 303.439 294.473,298.567 299.200,297.614 299.200 C 296.559 299.200,296.561 299.191,298.180 295.416 C 298.939 293.647,299.946 290.580,300.419 288.600 C 301.704 283.216,301.706 283.213,303.275 283.596 C 304.004 283.774,305.564 284.153,306.743 284.438 M280.500 285.894 C 284.545 288.976,284.095 289.190,273.467 289.232 C 266.965 289.259,265.602 289.356,266.442 289.732 C 267.015 289.990,267.735 290.403,268.042 290.651 C 268.349 290.899,269.590 291.189,270.800 291.296 C 277.619 291.897,283.351 297.027,281.406 300.788 C 280.220 303.082,277.279 302.907,276.034 300.467 C 274.670 297.793,274.521 297.758,269.780 299.015 C 265.558 300.134,264.947 300.781,268.100 300.794 C 269.594 300.800,270.283 301.931,269.200 302.600 C 268.533 303.012,268.705 306.789,269.403 307.057 C 270.805 307.595,272.598 306.779,273.947 304.988 C 275.603 302.789,275.368 302.776,278.449 305.239 C 282.349 308.356,282.150 308.562,275.000 308.800 L 269.000 309.000 269.000 312.800 L 269.000 316.600 271.860 316.717 L 274.719 316.833 276.208 315.017 C 278.041 312.780,277.977 312.779,281.054 315.100 C 283.508 316.952,284.270 317.863,283.776 318.357 C 283.308 318.826,248.845 318.852,247.971 318.384 C 245.836 317.242,247.809 316.800,255.049 316.800 L 262.000 316.800 262.000 312.800 L 262.000 308.800 256.600 308.800 C 251.467 308.800,251.200 308.760,251.200 308.000 C 251.200 307.240,251.467 307.200,256.600 307.200 L 262.000 307.200 262.000 304.200 C 262.000 302.313,261.839 301.200,261.567 301.200 C 260.794 301.200,254.619 302.798,253.964 303.168 C 253.030 303.695,252.593 303.260,251.439 300.650 C 250.040 297.485,250.039 297.488,252.975 296.042 C 254.575 295.254,256.583 293.756,258.275 292.087 L 261.000 289.400 255.227 289.289 C 249.493 289.178,248.238 288.888,248.667 287.771 C 248.850 287.293,250.927 287.200,261.378 287.200 L 273.870 287.200 275.563 285.394 C 276.558 284.332,277.450 283.701,277.728 283.864 C 277.988 284.017,279.235 284.930,280.500 285.894 M318.462 293.217 L 315.525 296.000 319.562 296.000 C 323.466 296.000,324.971 295.412,323.000 294.655 C 322.668 294.528,322.398 293.928,322.395 293.313 C 322.377 289.799,322.077 289.792,318.462 293.217 M266.247 293.045 C 265.401 293.620,263.605 294.616,262.255 295.258 L 259.800 296.425 265.600 296.173 C 272.730 295.863,272.761 295.848,270.757 293.700 C 268.907 291.717,268.326 291.633,266.247 293.045 M313.276 304.300 C 313.397 305.763,313.440 305.800,315.000 305.800 C 316.560 305.800,316.603 305.763,316.724 304.300 L 316.848 302.800 315.000 302.800 L 313.152 302.800 313.276 304.300 M313.378 308.545 C 312.902 310.443,313.271 311.000,315.005 311.000 C 316.599 311.000,316.600 310.999,316.600 309.400 C 316.600 307.354,313.860 306.627,313.378 308.545 " stroke="none" fill="#fbfbfb" fill-rule="evenodd"></path><path id="path3" d="M191.400 61.228 C 183.153 62.361,180.400 63.791,180.400 66.942 C 180.400 67.350,179.883 67.649,178.900 67.811 C 164.689 70.158,161.177 71.930,159.286 77.708 C 156.658 85.739,160.014 98.831,166.302 105.080 C 169.212 107.971,170.695 108.373,174.492 107.297 C 177.700 106.388,183.509 105.376,183.807 105.674 C 183.911 105.778,184.186 109.539,184.416 114.032 C 185.360 132.402,185.568 135.074,185.330 125.800 C 185.001 112.987,184.629 105.293,184.324 104.989 C 184.172 104.838,183.182 104.909,182.124 105.148 C 169.782 107.933,168.968 107.832,165.138 103.031 C 158.089 94.196,156.826 78.444,162.740 73.102 C 164.286 71.705,166.226 70.928,170.400 70.033 C 171.610 69.773,173.320 69.402,174.200 69.207 C 175.080 69.013,176.925 68.637,178.300 68.372 C 180.272 67.992,180.800 67.737,180.800 67.164 C 180.800 63.521,186.403 61.539,196.800 61.505 C 199.865 61.495,201.854 61.351,201.400 61.172 C 200.375 60.767,194.510 60.800,191.400 61.228 M203.000 61.972 C 207.458 63.742,207.784 63.800,212.800 63.723 C 220.418 63.606,231.938 62.935,227.400 62.872 C 225.420 62.845,220.476 62.992,216.413 63.199 C 209.105 63.571,208.997 63.564,206.289 62.587 C 203.781 61.682,200.926 61.148,203.000 61.972 M237.000 63.636 C 240.300 63.840,244.440 64.205,246.200 64.446 C 247.960 64.688,249.940 64.818,250.600 64.737 C 252.762 64.470,243.541 63.556,237.200 63.409 L 231.000 63.265 237.000 63.636 M252.033 64.955 C 252.125 65.040,253.820 65.420,255.800 65.799 C 263.667 67.306,270.557 69.476,277.197 72.540 C 290.694 78.767,302.833 91.445,307.127 103.800 C 308.746 108.458,309.898 113.607,310.751 120.000 C 311.065 122.349,311.102 122.426,311.142 120.800 C 311.626 100.986,295.857 79.602,274.200 70.704 C 266.824 67.673,250.363 63.404,252.033 64.955 M224.874 103.100 L 224.948 105.400 225.097 103.239 L 225.246 101.078 234.323 101.329 C 243.286 101.577,249.451 102.153,256.731 103.422 C 258.783 103.779,260.556 103.977,260.672 103.862 C 260.787 103.746,260.188 103.539,259.341 103.402 C 258.493 103.264,256.990 102.990,256.000 102.792 C 255.010 102.594,252.490 102.232,250.400 101.988 C 248.310 101.743,245.288 101.376,243.684 101.171 C 242.080 100.967,237.175 100.800,232.784 100.800 L 224.800 100.800 224.874 103.100 M261.200 104.146 C 261.200 104.226,262.505 104.598,264.100 104.972 C 296.315 112.529,299.091 130.671,270.200 144.829 C 263.507 148.109,255.641 150.679,244.200 153.322 C 243.602 153.461,243.676 153.519,244.494 153.554 C 246.401 153.634,258.769 150.281,263.400 148.427 C 263.840 148.251,264.650 147.924,265.200 147.701 C 290.920 137.249,298.224 122.028,282.464 111.726 C 277.287 108.342,261.200 102.607,261.200 104.146 M224.446 106.600 C 224.345 107.891,223.757 124.112,223.350 136.800 C 223.213 141.090,223.191 144.510,223.302 144.400 C 223.594 144.111,224.907 109.343,224.708 107.200 C 224.588 105.918,224.513 105.745,224.446 106.600 M311.246 128.235 C 311.021 155.567,296.769 173.287,268.000 182.004 C 262.989 183.522,261.913 183.934,262.858 183.973 C 264.078 184.023,276.569 179.717,280.400 177.925 C 296.513 170.389,307.260 157.199,310.646 140.800 C 311.260 137.830,311.890 124.942,311.497 123.400 C 311.385 122.960,311.272 125.136,311.246 128.235 M166.952 133.601 C 165.839 135.282,165.766 142.359,166.820 146.400 C 167.118 147.543,167.149 147.359,166.990 145.400 C 166.290 136.762,166.310 135.448,167.164 134.100 C 168.398 132.153,169.432 132.368,169.743 134.636 C 170.281 138.563,171.872 140.843,176.400 144.175 C 178.568 145.770,185.481 149.600,186.192 149.600 C 186.511 149.600,186.349 139.738,185.982 136.800 C 185.772 135.117,185.724 136.775,185.846 141.500 C 185.950 145.515,185.933 148.800,185.808 148.800 C 185.323 148.800,179.207 145.577,177.477 144.410 C 173.317 141.602,170.400 137.821,170.400 135.235 C 170.400 131.927,168.618 131.083,166.952 133.601 M222.659 147.860 C 222.516 149.544,222.400 152.064,222.400 153.460 L 222.400 156.000 225.455 156.000 C 229.537 156.000,238.686 154.953,238.267 154.533 C 238.148 154.415,236.555 154.507,234.726 154.737 C 232.897 154.967,229.465 155.277,227.101 155.426 L 222.801 155.695 223.063 150.248 C 223.344 144.387,223.083 142.844,222.659 147.860 M167.241 148.923 C 167.188 150.361,167.998 153.600,168.410 153.600 C 168.583 153.600,168.568 153.015,168.377 152.300 C 168.185 151.585,167.861 150.280,167.656 149.400 C 167.341 148.051,167.276 147.976,167.241 148.923 M239.800 154.000 C 238.653 154.292,238.671 154.306,240.200 154.325 C 241.080 154.335,242.160 154.189,242.600 154.000 C 243.653 153.547,241.579 153.547,239.800 154.000 M259.200 184.387 C 258.650 184.564,257.120 184.933,255.800 185.206 C 254.480 185.479,252.860 185.843,252.200 186.015 L 251.000 186.328 252.106 186.364 C 253.160 186.398,261.618 184.513,261.967 184.166 C 262.249 183.885,260.259 184.044,259.200 184.387 M246.400 186.831 C 245.410 187.016,243.340 187.303,241.800 187.469 C 239.757 187.689,239.373 187.811,240.380 187.917 C 241.693 188.056,250.800 186.859,250.800 186.548 C 250.800 186.309,248.348 186.467,246.400 186.831 M187.395 188.100 C 187.296 188.375,187.363 192.920,187.545 198.200 L 187.876 207.800 187.938 197.700 C 187.995 188.433,187.897 186.705,187.395 188.100 M226.000 188.507 C 219.528 188.966,220.415 188.060,219.986 194.661 C 218.750 213.688,218.315 218.569,217.801 219.200 C 217.532 219.530,216.526 221.150,215.566 222.800 C 214.605 224.450,213.496 226.340,213.100 227.000 C 212.018 228.805,208.800 235.505,208.800 235.953 C 208.800 236.168,207.967 236.760,206.948 237.269 C 205.137 238.173,202.400 240.898,202.400 241.797 C 202.400 243.264,200.737 245.600,199.691 245.602 C 198.807 245.604,198.335 246.020,197.200 247.800 C 195.762 250.056,195.569 250.173,194.200 249.622 C 193.113 249.185,192.209 249.729,191.606 251.185 C 191.211 252.138,190.149 252.861,189.968 252.300 C 189.915 252.138,189.275 234.400,188.833 220.845 C 188.607 213.939,188.328 208.194,188.211 208.078 C 187.745 207.612,188.886 244.650,189.515 250.400 C 189.854 253.493,190.494 253.770,191.983 251.470 C 192.818 250.180,193.132 249.978,193.986 250.182 C 194.544 250.316,195.221 250.465,195.491 250.513 C 195.762 250.561,196.674 249.610,197.518 248.400 C 198.641 246.791,199.368 246.145,200.225 245.996 C 201.251 245.818,201.545 245.425,202.598 242.821 C 203.725 240.035,203.960 239.747,206.347 238.224 C 208.705 236.721,209.007 236.358,210.397 233.353 C 211.223 231.568,213.470 227.462,215.390 224.229 C 218.463 219.054,218.900 218.079,219.049 216.075 C 219.141 214.824,219.487 209.840,219.818 205.000 C 220.148 200.160,220.529 194.650,220.665 192.756 L 220.912 189.312 224.517 189.056 C 226.500 188.915,229.580 188.782,231.361 188.760 C 233.143 188.739,235.590 188.584,236.800 188.417 C 240.122 187.958,232.894 188.018,226.000 188.507 M311.738 230.617 C 311.608 230.957,311.613 231.347,311.751 231.484 C 311.888 231.621,312.000 231.446,312.000 231.094 C 312.000 230.743,312.405 230.378,312.900 230.282 L 313.800 230.109 312.887 230.054 C 312.386 230.025,311.868 230.278,311.738 230.617 M321.600 230.331 C 321.600 230.513,322.140 230.582,322.800 230.485 C 323.460 230.388,324.000 230.240,324.000 230.155 C 324.000 230.070,323.460 230.000,322.800 230.000 C 322.140 230.000,321.600 230.149,321.600 230.331 M266.100 230.676 C 266.485 230.776,267.115 230.776,267.500 230.676 C 267.885 230.575,267.570 230.493,266.800 230.493 C 266.030 230.493,265.715 230.575,266.100 230.676 M261.193 236.000 L 261.000 241.400 254.405 241.600 C 248.178 241.789,247.805 241.845,247.728 242.600 C 247.664 243.222,247.692 243.245,247.852 242.700 C 248.038 242.072,248.705 242.000,254.380 242.000 C 262.152 242.000,261.660 242.431,261.505 235.744 L 261.386 230.600 261.193 236.000 M268.611 231.218 C 268.753 231.447,268.663 231.883,268.412 232.185 C 268.149 232.503,268.019 233.637,268.104 234.868 L 268.252 237.000 268.326 234.724 C 268.367 233.472,268.580 232.336,268.800 232.200 C 269.332 231.871,269.314 230.800,268.776 230.800 C 268.543 230.800,268.469 230.988,268.611 231.218 M298.967 231.342 C 298.773 231.847,300.235 234.800,300.679 234.800 C 300.789 234.800,300.501 234.160,300.040 233.377 C 299.018 231.646,298.998 231.311,299.900 231.076 C 300.556 230.904,300.555 230.890,299.887 230.846 C 299.496 230.821,299.081 231.044,298.967 231.342 M321.309 233.600 C 321.309 234.590,321.387 234.995,321.482 234.500 C 321.578 234.005,321.578 233.195,321.482 232.700 C 321.387 232.205,321.309 232.610,321.309 233.600 M312.802 234.876 C 312.801 235.248,312.983 235.666,313.207 235.804 C 313.430 235.942,313.509 236.223,313.383 236.428 C 313.256 236.632,313.343 236.800,313.576 236.800 C 314.125 236.800,314.114 236.710,313.402 235.346 C 313.024 234.621,312.804 234.448,312.802 234.876 M307.206 235.900 C 307.209 236.065,307.371 236.451,307.565 236.758 C 308.105 237.609,307.257 239.542,306.058 240.193 C 305.476 240.509,305.231 240.775,305.513 240.784 C 306.117 240.803,308.800 238.215,308.800 237.613 C 308.800 237.386,308.440 236.840,308.000 236.400 C 307.560 235.960,307.203 235.735,307.206 235.900 M277.168 238.700 C 276.718 239.296,276.722 239.325,277.199 238.900 C 278.055 238.137,278.734 238.287,280.542 239.638 L 282.200 240.876 280.600 239.444 C 278.818 237.849,277.954 237.662,277.168 238.700 M316.464 239.687 C 316.411 240.909,316.275 241.135,315.700 240.950 C 315.115 240.761,315.098 240.794,315.597 241.146 C 316.450 241.748,316.884 241.115,316.693 239.551 L 316.528 238.200 316.464 239.687 M321.278 239.719 C 319.579 241.472,319.643 241.612,322.100 241.528 L 324.200 241.456 322.245 241.304 L 320.290 241.152 321.623 239.776 C 322.357 239.019,322.867 238.400,322.757 238.400 C 322.647 238.400,321.982 238.994,321.278 239.719 M328.200 240.556 C 329.080 241.344,329.965 241.991,330.167 241.994 C 330.368 241.997,330.458 241.945,330.367 241.877 C 330.275 241.810,329.390 241.163,328.400 240.439 L 326.600 239.124 328.200 240.556 M275.600 240.600 C 274.377 241.902,268.746 242.125,268.032 240.900 C 267.808 240.515,267.619 240.389,267.612 240.620 C 267.557 242.520,274.016 242.662,275.800 240.800 C 276.432 240.140,276.857 239.600,276.745 239.600 C 276.632 239.600,276.117 240.050,275.600 240.600 M302.931 240.566 C 303.165 241.062,303.581 241.467,303.856 241.467 C 304.499 241.467,303.859 240.185,303.064 239.880 C 302.617 239.708,302.590 239.844,302.931 240.566 M282.848 241.400 C 283.204 241.840,283.595 242.470,283.716 242.800 C 283.903 243.309,283.942 243.304,283.968 242.762 C 283.986 242.411,283.595 241.781,283.100 241.362 C 282.208 240.606,282.206 240.607,282.848 241.400 M330.056 243.301 C 329.722 243.928,329.613 246.318,329.698 251.200 L 329.820 258.200 329.910 250.980 C 329.971 246.064,330.151 243.609,330.473 243.287 C 330.734 243.026,330.854 242.721,330.741 242.607 C 330.627 242.494,330.319 242.806,330.056 243.301 M316.564 243.351 C 316.441 243.671,316.399 244.443,316.470 245.066 L 316.600 246.200 320.200 246.200 L 323.800 246.200 323.800 244.600 L 323.800 243.000 320.293 242.884 C 317.517 242.793,316.740 242.890,316.564 243.351 M254.572 243.494 C 260.006 243.605,260.770 243.703,260.950 244.310 C 261.104 244.830,261.134 244.803,261.072 244.200 C 260.994 243.438,260.690 243.399,254.695 243.384 L 248.399 243.369 254.572 243.494 M268.028 243.900 C 268.044 244.285,268.223 244.960,268.427 245.400 C 268.710 246.010,268.744 245.894,268.569 244.909 L 268.340 243.618 275.670 243.500 L 283.000 243.381 275.500 243.290 C 268.580 243.207,268.002 243.254,268.028 243.900 M323.600 244.600 L 323.600 246.000 320.200 246.000 L 316.800 246.000 316.800 244.600 L 316.800 243.200 320.200 243.200 L 323.600 243.200 323.600 244.600 M307.815 244.348 C 308.599 245.294,308.599 245.296,307.700 245.896 C 306.830 246.478,306.803 246.686,306.888 252.149 L 306.975 257.800 307.099 252.255 C 307.215 247.089,307.284 246.659,308.112 245.979 L 309.000 245.249 308.015 244.324 L 307.030 243.400 307.815 244.348 M296.846 244.900 C 296.880 245.542,296.944 245.606,297.072 245.122 C 297.194 244.655,297.773 244.396,298.925 244.292 L 300.600 244.140 298.700 244.070 C 296.963 244.006,296.804 244.077,296.846 244.900 M299.519 245.894 L 301.238 246.048 301.119 252.386 C 301.053 255.873,301.135 258.641,301.300 258.539 C 301.465 258.437,301.600 255.483,301.600 251.976 L 301.600 245.600 299.700 245.670 L 297.800 245.740 299.519 245.894 M266.800 247.600 C 266.800 247.820,266.980 248.000,267.200 248.000 C 267.420 248.000,267.600 248.390,267.600 248.867 C 267.600 249.343,267.712 249.622,267.848 249.485 C 268.208 249.125,267.656 247.200,267.192 247.200 C 266.977 247.200,266.800 247.380,266.800 247.600 M316.667 247.867 C 316.520 248.013,316.400 248.730,316.400 249.459 C 316.400 251.073,317.009 251.293,321.008 251.120 L 323.800 251.000 323.923 249.300 L 324.046 247.600 320.490 247.600 C 318.534 247.600,316.813 247.720,316.667 247.867 M323.600 249.416 L 323.600 250.832 320.300 250.716 L 317.000 250.600 316.875 249.300 L 316.749 248.000 320.175 248.000 L 323.600 248.000 323.600 249.416 M316.900 252.257 C 316.621 252.374,316.400 253.157,316.400 254.026 C 316.400 255.902,316.877 256.099,321.008 255.920 L 323.800 255.800 323.800 254.000 L 323.800 252.200 320.600 252.124 C 318.840 252.082,317.175 252.142,316.900 252.257 M323.600 254.016 L 323.600 255.632 320.300 255.516 C 317.191 255.407,316.992 255.346,316.868 254.471 C 316.605 252.611,316.963 252.400,320.387 252.400 L 323.600 252.400 323.600 254.016 M274.000 254.600 C 274.746 255.370,275.447 256.000,275.557 256.000 C 275.667 256.000,275.146 255.370,274.400 254.600 C 273.654 253.830,272.953 253.200,272.843 253.200 C 272.733 253.200,273.254 253.830,274.000 254.600 M320.474 257.092 C 322.972 257.205,323.579 257.360,323.714 257.916 C 323.833 258.409,323.868 258.377,323.839 257.800 C 323.804 257.072,323.512 256.998,320.600 256.976 L 317.400 256.952 320.474 257.092 M260.585 259.300 L 258.600 261.400 260.700 259.415 C 261.855 258.323,262.800 257.378,262.800 257.315 C 262.800 257.017,262.429 257.349,260.585 259.300 M271.000 258.400 C 271.341 259.060,271.711 259.600,271.821 259.600 C 271.931 259.600,271.741 259.060,271.400 258.400 C 271.059 257.740,270.689 257.200,270.579 257.200 C 270.469 257.200,270.659 257.740,271.000 258.400 M316.432 257.677 C 316.414 258.050,316.000 258.635,315.511 258.977 C 315.022 259.320,314.814 259.600,315.049 259.600 C 315.729 259.600,316.903 258.098,316.673 257.523 C 316.533 257.174,316.453 257.225,316.432 257.677 M254.801 259.398 C 254.286 259.948,253.939 260.464,254.032 260.546 C 254.124 260.628,254.619 260.178,255.130 259.547 C 256.276 258.135,256.074 258.044,254.801 259.398 M281.200 259.400 C 281.750 259.714,282.380 259.972,282.600 259.972 C 282.820 259.972,282.550 259.714,282.000 259.400 C 281.450 259.086,280.820 258.828,280.600 258.828 C 280.380 258.828,280.650 259.086,281.200 259.400 M304.511 259.300 C 303.704 260.344,303.569 260.954,304.356 260.000 L 305.182 259.000 306.224 260.200 L 307.266 261.400 306.406 260.100 C 305.471 258.687,305.105 258.533,304.511 259.300 M298.300 259.829 C 296.805 260.640,296.896 260.978,298.400 260.200 C 299.060 259.859,299.600 259.494,299.600 259.390 C 299.600 259.132,299.557 259.147,298.300 259.829 M312.400 260.400 C 312.400 260.620,312.985 260.787,313.700 260.772 C 314.789 260.748,314.870 260.688,314.200 260.400 C 313.095 259.925,312.400 259.925,312.400 260.400 M319.500 261.098 C 321.315 261.172,324.285 261.172,326.100 261.098 C 327.915 261.023,326.430 260.963,322.800 260.963 C 319.170 260.963,317.685 261.023,319.500 261.098 M281.414 262.841 C 280.636 263.524,280.000 264.284,280.000 264.530 C 280.000 264.777,280.291 264.563,280.647 264.055 C 281.002 263.547,281.857 262.788,282.547 262.367 C 283.236 261.947,283.581 261.602,283.314 261.601 C 283.047 261.601,282.192 262.159,281.414 262.841 M249.600 264.223 C 247.437 265.963,246.629 267.206,247.671 267.194 C 248.557 267.184,249.563 266.414,248.700 266.406 C 248.315 266.403,248.000 266.220,248.000 266.000 C 248.000 265.780,248.135 265.600,248.300 265.599 C 248.465 265.598,249.410 264.886,250.400 264.016 C 252.807 261.901,252.337 262.023,249.600 264.223 M274.000 262.655 C 274.000 262.868,274.675 263.663,275.500 264.422 L 277.000 265.800 275.600 264.204 C 274.830 263.327,274.155 262.532,274.100 262.438 C 274.045 262.344,274.000 262.441,274.000 262.655 M254.300 263.829 C 252.805 264.640,252.896 264.978,254.400 264.200 C 255.060 263.859,255.600 263.494,255.600 263.390 C 255.600 263.132,255.557 263.147,254.300 263.829 M330.467 265.180 C 330.233 265.851,330.127 266.400,330.231 266.400 C 330.501 266.400,331.256 264.322,331.057 264.124 C 330.967 264.033,330.701 264.508,330.467 265.180 M298.899 265.600 C 299.227 266.150,299.834 266.642,300.248 266.693 C 300.771 266.758,300.817 266.712,300.400 266.545 C 300.070 266.412,299.463 265.920,299.051 265.452 L 298.302 264.600 298.899 265.600 M279.328 265.919 C 278.936 266.521,278.775 266.535,277.942 266.036 C 277.078 265.518,277.045 265.526,277.549 266.136 C 277.851 266.501,278.324 266.800,278.600 266.800 C 279.146 266.800,280.221 265.687,279.943 265.410 C 279.849 265.315,279.572 265.545,279.328 265.919 M278.000 284.164 C 278.000 284.279,278.979 285.114,280.177 286.017 C 281.374 286.921,282.433 287.962,282.530 288.330 C 282.694 288.951,282.711 288.950,282.754 288.323 C 282.780 287.936,281.774 286.857,280.400 285.800 C 279.080 284.784,278.000 284.048,278.000 284.164 M328.562 285.262 C 328.380 285.556,328.453 285.615,328.763 285.423 C 329.038 285.253,329.632 285.444,330.125 285.861 L 331.000 286.600 330.238 285.700 C 329.384 284.691,328.980 284.585,328.562 285.262 M274.800 286.200 L 273.861 287.200 261.373 287.200 C 249.848 287.200,248.865 287.254,248.619 287.900 C 248.405 288.461,248.452 288.501,248.856 288.100 C 249.237 287.722,252.344 287.600,261.605 287.600 L 273.850 287.600 275.000 286.400 C 275.632 285.740,276.057 285.200,275.945 285.200 C 275.832 285.200,275.317 285.650,274.800 286.200 M323.700 286.566 C 323.205 287.040,322.800 287.548,322.800 287.695 C 322.800 287.842,323.278 287.519,323.863 286.977 C 324.447 286.435,324.852 285.927,324.763 285.848 C 324.673 285.769,324.195 286.092,323.700 286.566 M326.875 287.000 C 326.397 287.550,326.163 288.000,326.357 288.000 C 326.550 288.000,327.003 287.550,327.363 287.000 C 327.724 286.450,327.957 286.000,327.881 286.000 C 327.806 286.000,327.353 286.450,326.875 287.000 M307.680 286.880 C 306.790 287.770,307.146 288.400,308.538 288.400 C 309.433 288.400,310.128 288.102,310.638 287.500 C 311.399 286.601,311.399 286.601,310.569 287.300 C 309.130 288.511,306.836 288.124,308.080 286.880 C 308.344 286.616,308.470 286.400,308.360 286.400 C 308.250 286.400,307.944 286.616,307.680 286.880 M316.400 286.971 C 316.400 287.285,316.085 287.624,315.700 287.724 C 315.173 287.862,315.223 287.919,315.900 287.954 C 316.549 287.987,316.800 287.777,316.800 287.200 C 316.800 286.760,316.710 286.400,316.600 286.400 C 316.490 286.400,316.400 286.657,316.400 286.971 M254.940 289.099 C 260.494 289.214,260.845 289.267,260.340 289.911 C 259.853 290.532,259.869 290.546,260.496 290.055 C 261.812 289.023,260.738 288.800,254.876 288.888 L 249.000 288.977 254.940 289.099 M265.199 289.100 C 265.199 289.265,267.764 289.353,270.899 289.297 C 281.307 289.108,282.300 288.960,273.700 288.879 C 269.025 288.836,265.200 288.935,265.199 289.100 M310.800 289.837 C 310.800 289.967,311.160 290.531,311.600 291.091 C 312.040 291.650,312.400 291.916,312.400 291.683 C 312.400 291.449,312.117 290.974,311.771 290.629 C 311.200 290.057,311.348 290.000,313.398 290.000 C 315.544 290.000,315.642 290.044,315.408 290.900 C 315.195 291.680,315.221 291.706,315.603 291.097 C 315.845 290.710,315.933 290.215,315.798 289.997 C 315.540 289.580,310.800 289.428,310.800 289.837 M326.000 289.904 C 326.000 290.071,326.405 290.460,326.900 290.768 C 327.716 291.276,327.750 291.268,327.266 290.682 C 326.785 290.100,327.019 290.023,329.666 289.898 L 332.600 289.759 329.300 289.679 C 327.485 289.636,326.000 289.737,326.000 289.904 M267.836 291.000 C 268.877 292.041,269.600 292.287,269.600 291.600 C 269.600 291.380,269.352 291.200,269.049 291.200 C 268.746 291.200,268.274 290.930,268.000 290.600 C 267.726 290.270,267.352 290.000,267.169 290.000 C 266.986 290.000,267.286 290.450,267.836 291.000 M318.800 292.391 C 317.590 293.648,316.241 294.871,315.803 295.108 C 315.365 295.346,315.116 295.649,315.249 295.783 C 315.383 295.916,316.847 294.760,318.504 293.213 C 321.819 290.116,321.852 290.097,322.148 291.100 C 322.310 291.649,322.336 291.629,322.272 291.005 C 322.130 289.614,321.064 290.040,318.800 292.391 M271.800 291.600 C 272.240 291.789,272.870 291.944,273.200 291.944 C 273.578 291.944,273.504 291.817,273.000 291.600 C 272.560 291.411,271.930 291.256,271.600 291.256 C 271.222 291.256,271.296 291.383,271.800 291.600 M304.012 292.900 C 303.496 293.615,303.222 294.065,303.403 293.901 C 303.584 293.736,304.146 294.276,304.653 295.101 C 305.160 295.925,305.575 296.420,305.575 296.200 C 305.575 295.980,305.316 295.458,305.000 295.041 C 304.684 294.624,304.520 294.129,304.636 293.941 C 304.752 293.753,304.652 293.600,304.414 293.600 C 304.163 293.600,304.257 293.180,304.637 292.600 C 305.590 291.145,305.113 291.374,304.012 292.900 M265.681 292.972 C 263.925 294.214,263.497 294.745,265.000 293.818 C 267.078 292.535,267.791 291.999,267.389 292.020 C 267.175 292.030,266.407 292.459,265.681 292.972 M270.937 293.854 C 272.020 295.020,272.315 295.572,271.937 295.723 C 271.572 295.868,271.624 295.947,272.100 295.968 C 273.183 296.017,272.946 295.498,271.100 293.781 L 269.400 292.200 270.937 293.854 M276.410 292.926 C 277.009 293.574,279.695 295.197,279.218 294.622 C 278.910 294.251,278.105 293.666,277.429 293.323 C 276.753 292.979,276.295 292.801,276.410 292.926 M311.019 294.121 L 309.837 295.257 310.897 294.774 C 311.479 294.509,312.060 294.020,312.187 293.689 C 312.532 292.789,312.321 292.868,311.019 294.121 M256.369 293.838 C 256.078 294.189,254.930 294.997,253.820 295.634 C 251.769 296.810,251.543 297.266,253.520 296.239 C 254.966 295.488,257.815 293.200,257.304 293.200 C 257.081 293.200,256.660 293.487,256.369 293.838 M322.835 294.478 C 323.184 294.765,323.575 295.270,323.704 295.600 C 323.893 296.086,323.943 296.070,323.968 295.514 C 323.986 295.137,323.595 294.632,323.100 294.392 C 322.337 294.022,322.296 294.035,322.835 294.478 M313.681 295.218 C 313.372 295.713,313.346 296.000,313.609 296.000 C 313.838 296.000,314.132 295.722,314.262 295.383 C 314.622 294.445,314.233 294.334,313.681 295.218 M300.424 296.818 C 298.040 298.989,296.987 299.366,297.399 297.900 C 297.597 297.195,297.561 297.130,297.232 297.600 C 296.087 299.236,297.373 299.752,299.137 298.364 L 300.200 297.527 300.306 308.850 C 300.365 315.077,300.545 320.305,300.706 320.467 C 300.868 320.629,300.950 315.562,300.888 309.208 L 300.777 297.655 301.888 297.488 L 303.000 297.320 301.825 297.260 L 300.650 297.200 301.800 296.000 C 303.525 294.199,302.875 294.586,300.424 296.818 M280.655 296.600 C 281.580 298.179,281.600 298.203,281.600 297.711 C 281.600 297.479,281.229 296.864,280.776 296.344 L 279.953 295.400 280.655 296.600 M259.200 296.474 C 259.200 296.654,260.595 296.779,262.300 296.754 C 265.740 296.702,265.505 296.524,261.700 296.298 C 260.325 296.216,259.200 296.295,259.200 296.474 M266.705 296.283 C 267.202 296.379,267.922 296.375,268.305 296.275 C 268.687 296.175,268.280 296.096,267.400 296.101 C 266.520 296.105,266.207 296.187,266.705 296.283 M330.249 296.984 C 330.381 297.329,330.244 297.923,329.945 298.305 C 329.452 298.934,329.467 298.948,330.100 298.451 C 330.873 297.844,331.016 296.981,330.405 296.603 C 330.177 296.462,330.111 296.624,330.249 296.984 M250.536 297.422 C 250.405 297.764,250.501 298.439,250.751 298.922 L 251.204 299.800 250.969 298.881 C 250.840 298.375,250.951 297.700,251.216 297.381 C 251.570 296.954,251.576 296.800,251.236 296.800 C 250.983 296.800,250.667 297.080,250.536 297.422 M272.400 298.018 C 271.955 298.319,272.086 298.358,272.905 298.167 C 273.590 298.008,274.274 298.118,274.705 298.455 C 275.334 298.948,275.348 298.933,274.851 298.300 C 274.237 297.517,273.300 297.409,272.400 298.018 M318.415 297.894 L 323.630 298.023 323.515 306.592 C 323.452 311.305,323.539 315.022,323.708 314.852 C 323.878 314.682,323.968 310.776,323.908 306.172 L 323.800 297.800 318.499 297.782 L 313.199 297.764 318.415 297.894 M310.529 299.440 C 310.394 299.793,310.535 300.240,310.842 300.434 C 311.737 301.001,312.226 300.853,311.415 300.261 C 311.010 299.964,310.806 299.514,310.962 299.261 C 311.119 299.007,311.141 298.800,311.011 298.800 C 310.881 298.800,310.664 299.088,310.529 299.440 M306.196 299.700 C 305.886 300.568,305.786 319.949,306.094 319.463 C 306.256 319.208,306.391 314.635,306.394 309.300 C 306.397 303.965,306.558 299.600,306.751 299.600 C 307.763 299.600,307.987 301.042,308.091 308.230 L 308.200 315.800 309.215 315.918 C 309.774 315.984,310.674 315.863,311.215 315.651 C 312.054 315.323,311.933 315.276,310.400 315.333 L 308.600 315.400 308.491 308.021 C 308.399 301.864,308.273 300.523,307.729 299.921 C 306.964 299.077,306.446 299.002,306.196 299.700 M264.000 300.400 C 264.000 300.620,264.585 300.797,265.300 300.794 C 266.286 300.789,266.455 300.694,266.000 300.400 C 265.214 299.892,264.000 299.892,264.000 300.400 M276.222 300.911 C 276.523 301.699,277.936 302.597,278.301 302.232 C 278.429 302.105,278.330 302.000,278.082 302.000 C 277.834 302.000,277.253 301.595,276.791 301.100 C 276.151 300.415,276.016 300.370,276.222 300.911 M261.284 301.073 C 261.838 301.218,261.993 301.835,262.103 304.326 L 262.239 307.400 262.320 304.100 C 262.397 300.908,262.370 300.802,261.500 300.846 C 260.849 300.880,260.789 300.943,261.284 301.073 M269.072 301.555 C 269.181 301.970,269.074 302.431,268.835 302.578 C 268.348 302.879,268.232 306.648,268.700 306.939 C 268.865 307.041,268.936 306.224,268.859 305.124 C 268.780 304.004,268.912 302.928,269.159 302.681 C 269.690 302.150,269.747 300.800,269.237 300.800 C 269.038 300.800,268.964 301.140,269.072 301.555 M313.700 301.087 C 314.305 301.178,315.295 301.178,315.900 301.087 C 316.505 300.995,316.010 300.920,314.800 300.920 C 313.590 300.920,313.095 300.995,313.700 301.087 M314.105 302.687 C 314.714 302.779,315.614 302.777,316.105 302.682 C 316.597 302.587,316.100 302.511,315.000 302.514 C 313.900 302.517,313.497 302.595,314.105 302.687 M274.749 303.900 C 274.249 304.538,274.263 304.550,274.917 304.037 C 275.545 303.543,275.791 303.584,276.917 304.366 L 278.200 305.258 277.078 304.229 C 275.750 303.012,275.476 302.973,274.749 303.900 M322.086 307.667 C 322.039 310.234,321.896 312.664,321.770 313.067 C 321.558 313.741,321.575 313.745,321.983 313.113 C 322.263 312.678,322.379 310.693,322.299 307.713 L 322.172 303.000 322.086 307.667 M313.462 306.100 C 313.564 306.265,314.256 306.400,315.000 306.400 C 315.744 306.400,316.436 306.265,316.538 306.100 C 316.640 305.935,315.948 305.800,315.000 305.800 C 314.052 305.800,313.360 305.935,313.462 306.100 M280.635 307.340 C 280.810 307.800,280.705 308.215,280.358 308.434 C 279.941 308.699,279.929 308.789,280.313 308.794 C 281.044 308.803,281.395 307.634,280.829 307.073 C 280.461 306.708,280.417 306.769,280.635 307.340 M314.000 307.356 C 314.000 307.442,314.617 307.585,315.372 307.673 C 316.127 307.761,316.656 307.690,316.548 307.516 C 316.355 307.203,314.000 307.055,314.000 307.356 M262.083 312.700 L 262.000 316.800 255.049 316.800 C 248.258 316.800,246.014 317.220,247.590 318.194 C 247.827 318.340,247.970 318.221,247.910 317.930 C 247.823 317.509,249.264 317.378,254.916 317.291 C 263.142 317.164,262.483 317.603,262.299 312.370 L 262.166 308.600 262.083 312.700 M268.667 309.067 C 268.333 309.400,268.313 315.708,268.643 316.567 C 269.066 317.669,274.459 317.457,275.438 316.300 L 276.200 315.400 275.347 316.119 C 274.670 316.691,273.929 316.814,271.747 316.719 L 269.000 316.600 269.000 312.699 C 269.000 310.554,268.985 308.799,268.967 308.799 C 268.948 308.800,268.813 308.920,268.667 309.067 M276.962 314.100 C 276.206 314.992,276.207 314.994,277.000 314.352 C 277.440 313.996,278.070 313.605,278.400 313.484 C 278.909 313.297,278.904 313.258,278.362 313.232 C 278.011 313.214,277.381 313.605,276.962 314.100 M317.152 314.512 C 317.345 314.705,318.019 314.798,318.651 314.719 C 319.709 314.587,319.681 314.559,318.300 314.368 C 317.440 314.249,316.950 314.310,317.152 314.512 M329.246 316.467 C 329.221 316.834,329.096 317.464,328.970 317.867 C 328.752 318.562,328.763 318.563,329.197 317.887 C 329.448 317.496,329.573 316.866,329.473 316.487 C 329.311 315.868,329.288 315.866,329.246 316.467 M256.900 318.700 C 261.685 318.763,269.515 318.763,274.300 318.700 C 279.085 318.636,275.170 318.584,265.600 318.584 C 256.030 318.584,252.115 318.636,256.900 318.700 M322.432 318.824 C 322.414 319.166,322.680 319.796,323.022 320.224 C 323.634 320.988,323.638 320.987,323.276 320.200 C 323.074 319.760,322.808 319.130,322.686 318.800 C 322.493 318.282,322.459 318.285,322.432 318.824 M325.000 320.400 C 324.496 320.617,324.422 320.744,324.800 320.744 C 325.130 320.744,325.760 320.589,326.200 320.400 C 326.704 320.183,326.778 320.056,326.400 320.056 C 326.070 320.056,325.440 320.211,325.000 320.400 " stroke="none" fill="#9494d3" fill-rule="evenodd"></path><path id="path4" d="M94.600 146.800 C 93.525 147.262,95.455 147.273,98.000 146.820 L 99.800 146.500 97.600 146.478 C 96.390 146.466,95.040 146.611,94.600 146.800 M100.833 146.551 C 100.925 146.634,102.260 146.822,103.800 146.969 C 105.772 147.158,106.423 147.115,106.000 146.825 C 105.461 146.454,100.432 146.188,100.833 146.551 M90.600 147.600 C 89.871 147.913,89.888 147.944,90.800 147.944 C 91.350 147.944,92.160 147.789,92.600 147.600 C 93.329 147.287,93.312 147.256,92.400 147.256 C 91.850 147.256,91.040 147.411,90.600 147.600 M107.200 147.600 C 107.530 147.813,108.140 147.991,108.556 147.994 C 112.289 148.024,120.170 154.203,122.610 159.014 C 123.940 161.636,124.721 162.009,127.257 161.235 C 128.521 160.850,128.474 160.831,126.466 160.913 L 124.332 161.000 123.321 159.200 C 120.625 154.401,118.083 151.871,113.600 149.526 C 110.317 147.808,105.088 146.235,107.200 147.600 M86.653 148.804 C 85.162 149.548,84.039 150.628,84.013 151.342 C 84.006 151.531,84.508 151.141,85.128 150.477 C 85.748 149.813,87.008 149.067,87.928 148.819 C 88.848 148.572,89.600 148.286,89.600 148.185 C 89.600 147.766,88.101 148.081,86.653 148.804 M84.080 154.400 C 84.080 155.170,84.224 156.250,84.400 156.800 C 84.690 157.705,84.720 157.667,84.720 156.400 C 84.720 155.630,84.576 154.550,84.400 154.000 C 84.110 153.095,84.080 153.133,84.080 154.400 M167.000 154.000 C 166.313 154.295,166.370 154.347,167.400 154.366 C 168.060 154.378,168.870 154.213,169.200 154.000 C 169.982 153.494,168.176 153.494,167.000 154.000 M162.600 154.800 C 161.518 155.265,163.748 155.265,165.200 154.800 C 166.109 154.509,166.073 154.479,164.800 154.468 C 164.030 154.462,163.040 154.611,162.600 154.800 M158.400 155.600 C 157.428 155.911,157.433 155.920,158.600 155.920 C 159.260 155.920,160.250 155.776,160.800 155.600 C 161.772 155.289,161.767 155.280,160.600 155.280 C 159.940 155.280,158.950 155.424,158.400 155.600 M153.800 156.400 C 152.718 156.865,154.948 156.865,156.400 156.400 C 157.309 156.109,157.273 156.079,156.000 156.068 C 155.230 156.062,154.240 156.211,153.800 156.400 M149.400 157.200 C 148.318 157.665,150.548 157.665,152.000 157.200 C 152.909 156.909,152.873 156.879,151.600 156.868 C 150.830 156.862,149.840 157.011,149.400 157.200 M144.800 158.000 C 143.401 158.448,145.639 158.448,147.400 158.000 L 148.600 157.695 147.200 157.687 C 146.430 157.683,145.350 157.824,144.800 158.000 M84.895 159.600 C 84.895 160.590,85.032 161.940,85.200 162.600 C 85.473 163.673,85.505 163.609,85.505 162.000 C 85.505 161.010,85.368 159.660,85.200 159.000 C 84.927 157.927,84.895 157.991,84.895 159.600 M139.600 158.800 C 138.218 159.243,140.860 159.243,142.600 158.800 C 143.742 158.510,143.722 158.494,142.200 158.487 C 141.320 158.483,140.150 158.624,139.600 158.800 M134.800 159.600 C 133.895 159.890,133.933 159.920,135.200 159.920 C 135.970 159.920,137.050 159.776,137.600 159.600 C 138.505 159.310,138.467 159.280,137.200 159.280 C 136.430 159.280,135.350 159.424,134.800 159.600 M129.600 160.400 C 128.746 160.674,128.833 160.720,130.200 160.720 C 131.080 160.720,132.250 160.576,132.800 160.400 C 133.654 160.126,133.567 160.080,132.200 160.080 C 131.320 160.080,130.150 160.224,129.600 160.400 M85.667 165.629 C 85.607 166.920,85.454 167.100,84.100 167.479 C 82.636 167.889,82.629 167.900,83.800 167.943 C 85.622 168.011,86.078 167.535,85.895 165.759 L 85.734 164.200 85.667 165.629 M78.400 168.400 C 77.495 168.690,77.533 168.720,78.800 168.720 C 79.570 168.720,80.650 168.576,81.200 168.400 C 82.105 168.110,82.067 168.080,80.800 168.080 C 80.030 168.080,78.950 168.224,78.400 168.400 M73.600 169.200 C 72.201 169.648,74.439 169.648,76.200 169.200 L 77.400 168.895 76.000 168.887 C 75.230 168.883,74.150 169.024,73.600 169.200 M68.400 170.000 C 67.018 170.443,69.660 170.443,71.400 170.000 C 72.542 169.710,72.522 169.694,71.000 169.687 C 70.120 169.683,68.950 169.824,68.400 170.000 M65.200 171.197 C 65.200 174.609,66.529 175.542,71.851 175.868 C 74.133 176.007,76.000 176.166,76.000 176.221 C 76.000 176.275,75.342 176.978,74.538 177.782 L 73.076 179.244 74.791 180.991 L 76.506 182.739 75.653 183.823 C 74.465 185.333,74.515 185.407,77.100 185.996 C 78.365 186.284,80.390 186.780,81.600 187.100 C 82.810 187.419,84.208 187.773,84.706 187.888 C 85.949 188.173,86.053 188.475,85.365 189.802 C 84.607 191.264,84.866 191.909,86.274 192.071 C 87.154 192.172,87.451 192.459,87.651 193.400 L 87.905 194.600 87.953 193.339 C 87.993 192.269,87.811 192.012,86.752 191.643 C 85.828 191.321,85.562 191.026,85.726 190.504 C 86.527 187.959,86.604 188.132,84.335 187.378 C 83.161 186.988,80.791 186.355,79.070 185.971 C 75.424 185.158,75.252 185.047,76.136 184.071 C 77.160 182.939,76.942 182.184,75.167 180.710 L 73.534 179.353 75.167 177.878 C 77.825 175.476,77.525 175.200,72.262 175.200 C 67.424 175.200,67.372 175.181,66.100 172.905 C 65.393 171.641,65.472 171.225,66.500 170.812 C 67.365 170.465,67.357 170.450,66.300 170.425 C 65.459 170.406,65.200 170.588,65.200 171.197 M182.200 187.600 C 180.469 187.837,180.684 187.882,183.800 187.931 C 185.780 187.962,187.670 187.813,188.000 187.600 C 188.692 187.153,185.463 187.153,182.200 187.600 M169.800 188.400 C 167.929 188.657,167.994 188.676,170.800 188.698 C 172.450 188.710,174.790 188.584,176.000 188.417 C 178.139 188.121,178.112 188.113,175.000 188.119 C 173.240 188.123,170.900 188.249,169.800 188.400 M157.000 189.200 C 155.197 189.447,155.316 189.477,158.200 189.498 C 159.960 189.510,162.390 189.384,163.600 189.217 C 165.672 188.930,165.602 188.913,162.400 188.919 C 160.530 188.923,158.100 189.049,157.000 189.200 M144.600 190.000 C 142.792 190.248,142.907 190.277,145.800 190.302 C 147.560 190.317,149.900 190.190,151.000 190.018 C 153.692 189.599,147.650 189.582,144.600 190.000 M130.800 190.800 C 128.835 191.041,128.985 191.072,132.200 191.095 C 134.180 191.109,136.790 190.984,138.000 190.817 C 140.008 190.539,139.887 190.513,136.600 190.522 C 134.620 190.526,132.010 190.652,130.800 190.800 M127.463 199.300 C 127.320 201.775,127.203 205.825,127.202 208.300 L 127.200 212.800 129.700 212.765 C 131.075 212.746,133.100 212.575,134.200 212.386 C 135.673 212.132,135.068 212.092,131.899 212.233 L 127.597 212.425 127.862 203.613 C 128.142 194.306,127.901 191.700,127.463 199.300 M88.108 201.000 C 88.100 203.200,88.225 206.170,88.386 207.600 C 88.665 210.086,88.679 210.024,88.692 206.200 C 88.700 204.000,88.575 201.030,88.414 199.600 C 88.135 197.114,88.121 197.176,88.108 201.000 M183.700 209.476 C 184.626 209.718,184.581 210.194,183.396 212.740 C 182.848 213.917,182.418 215.357,182.441 215.940 C 182.481 216.981,182.487 216.979,182.775 215.800 C 182.937 215.140,183.458 213.842,183.934 212.916 C 185.108 210.634,185.094 209.185,183.900 209.246 C 183.223 209.281,183.173 209.338,183.700 209.476 M162.600 210.000 C 159.031 210.395,167.525 210.415,172.000 210.022 C 175.296 209.733,175.241 209.724,170.200 209.729 C 167.340 209.732,163.920 209.854,162.600 210.000 M149.000 210.800 C 146.721 211.208,152.130 211.221,155.400 210.815 C 157.709 210.529,157.663 210.518,154.200 210.516 C 152.220 210.514,149.880 210.642,149.000 210.800 M138.800 211.600 C 136.784 212.024,141.491 212.040,144.200 211.618 C 146.119 211.320,146.079 211.307,143.200 211.306 C 141.550 211.306,139.570 211.438,138.800 211.600 M88.904 218.000 C 88.891 220.530,89.014 224.130,89.178 226.000 C 89.476 229.399,89.476 229.398,89.486 224.400 C 89.491 221.650,89.368 218.050,89.212 216.400 C 88.940 213.509,88.928 213.566,88.904 218.000 M182.062 218.400 C 181.917 220.393,181.512 221.093,180.069 221.843 C 174.279 224.851,173.707 225.319,175.300 225.750 C 176.075 225.960,175.686 226.332,172.500 228.430 C 170.465 229.770,168.800 231.015,168.800 231.197 C 168.800 231.602,176.766 226.319,176.786 225.900 C 176.794 225.735,176.541 225.600,176.224 225.600 C 174.796 225.600,175.486 224.848,178.256 223.384 C 182.050 221.380,182.496 220.890,182.294 218.939 C 182.202 218.054,182.104 217.825,182.062 218.400 M261.600 235.662 C 261.600 242.453,262.121 242.000,254.320 242.000 C 249.016 242.000,248.000 242.095,248.000 242.590 C 248.000 243.081,249.087 243.199,254.500 243.290 L 261.000 243.400 260.863 245.400 C 260.363 252.684,255.711 260.554,249.343 264.889 C 246.303 266.959,248.415 266.915,252.505 264.823 C 260.141 260.918,264.189 256.450,266.205 249.700 C 267.017 246.980,267.460 246.594,267.812 248.300 C 269.183 254.930,271.851 260.312,275.646 264.100 C 278.307 266.756,279.024 266.919,279.806 265.048 C 280.425 263.566,282.511 261.600,283.464 261.600 C 284.707 261.600,283.657 260.597,280.974 259.222 C 274.484 255.896,270.900 252.187,268.859 246.685 C 267.470 242.942,266.957 243.200,275.800 243.200 C 284.836 243.200,284.989 243.116,281.230 240.223 C 278.308 237.974,278.126 237.973,276.265 240.200 L 274.760 242.000 271.604 242.000 C 269.590 242.000,268.340 241.827,268.152 241.523 C 267.707 240.803,268.004 232.677,268.497 232.084 C 269.220 231.212,268.362 230.849,264.897 230.560 L 261.600 230.285 261.600 235.662 M312.000 231.176 C 312.000 231.603,312.180 232.064,312.400 232.200 C 312.620 232.336,312.801 232.842,312.802 233.324 C 312.804 233.806,313.074 234.716,313.402 235.346 C 313.731 235.976,314.000 236.561,314.000 236.646 C 314.000 236.731,312.830 236.800,311.400 236.800 C 309.067 236.800,308.800 236.882,308.800 237.600 C 308.800 238.347,309.067 238.400,312.800 238.400 L 316.800 238.400 316.800 239.733 C 316.800 241.601,316.646 241.644,313.913 240.533 C 310.699 239.227,310.813 238.874,310.806 250.100 C 310.799 260.549,310.794 260.569,308.389 258.923 C 306.845 257.867,306.813 257.723,306.806 251.949 C 306.800 246.747,306.841 246.468,307.700 245.862 L 308.600 245.226 306.800 243.604 C 303.745 240.851,303.539 240.838,301.832 243.276 C 301.410 243.877,300.676 244.168,299.223 244.307 C 296.295 244.589,296.434 245.600,299.400 245.600 L 301.600 245.600 301.600 251.984 L 301.600 258.369 299.205 259.684 C 296.387 261.232,296.362 261.352,298.257 264.206 C 299.552 266.156,300.800 267.054,300.800 266.034 C 300.800 265.391,304.587 259.071,305.068 258.911 C 305.323 258.826,306.074 259.545,306.737 260.509 C 309.893 265.096,314.392 266.564,324.567 266.329 C 333.373 266.125,331.759 265.400,322.500 265.400 C 312.344 265.400,309.668 264.440,306.776 259.761 C 305.433 257.587,304.715 257.954,302.400 262.000 C 299.986 266.218,300.061 266.189,298.377 263.564 C 296.933 261.314,296.874 261.464,299.800 259.931 C 300.680 259.470,301.532 258.892,301.694 258.646 C 302.185 257.901,302.058 245.818,301.554 245.314 C 301.057 244.817,302.923 241.999,303.747 242.001 C 304.883 242.004,307.825 245.177,307.100 245.616 C 306.484 245.989,306.400 246.752,306.400 252.000 L 306.400 257.959 307.700 258.930 C 309.394 260.195,312.103 261.092,312.314 260.458 C 312.398 260.206,312.767 259.999,313.133 259.999 C 314.148 259.996,316.400 258.490,316.400 257.814 C 316.400 256.999,317.696 256.737,321.008 256.880 L 323.800 257.000 323.923 258.266 C 324.074 259.827,324.618 260.058,326.853 259.511 C 329.681 258.818,329.600 259.066,329.600 251.146 C 329.600 246.233,329.752 243.746,330.085 243.213 C 330.352 242.786,330.487 242.377,330.385 242.304 C 330.283 242.232,329.360 241.503,328.333 240.686 C 326.086 238.898,326.195 238.907,324.800 240.400 C 323.869 241.397,323.368 241.600,321.840 241.600 C 319.649 241.600,319.584 241.360,321.319 239.678 L 322.638 238.400 327.470 238.400 C 333.688 238.400,334.118 238.047,331.071 235.443 C 328.475 233.225,328.480 233.225,327.104 235.215 C 326.237 236.468,325.755 236.800,324.804 236.800 C 323.811 236.800,322.941 236.020,323.900 235.991 C 324.065 235.986,324.856 235.390,325.658 234.667 C 326.460 233.945,327.540 233.066,328.058 232.715 C 329.273 231.891,328.813 231.469,325.997 230.824 C 322.215 229.957,321.838 230.161,321.575 233.217 C 321.290 236.521,321.103 236.800,319.176 236.800 C 317.678 236.800,317.132 236.336,318.000 235.800 C 318.670 235.386,318.455 232.973,317.685 232.277 C 315.766 230.541,312.000 229.811,312.000 231.176 M268.388 231.478 C 268.492 231.569,268.381 231.769,268.142 231.922 C 267.313 232.451,267.020 241.860,267.819 242.306 C 268.282 242.566,268.357 242.779,268.051 242.968 C 267.803 243.122,267.600 243.665,267.600 244.175 C 267.600 244.685,267.353 245.307,267.052 245.557 C 266.750 245.807,266.409 246.684,266.294 247.506 C 265.383 253.997,260.830 259.727,253.273 263.895 C 249.081 266.207,248.962 266.050,252.462 262.825 C 258.207 257.531,263.243 246.323,261.286 243.188 C 260.938 242.632,260.945 242.418,261.314 242.296 C 261.656 242.182,261.839 240.459,261.930 236.475 L 262.060 230.815 265.130 231.063 C 266.819 231.200,268.285 231.386,268.388 231.478 M314.767 231.190 C 317.876 232.082,318.809 234.275,316.870 236.133 L 315.740 237.215 314.783 236.386 C 314.257 235.929,313.621 234.801,313.371 233.878 C 313.120 232.955,312.780 231.885,312.615 231.500 C 312.264 230.682,312.751 230.612,314.767 231.190 M325.580 231.233 C 328.132 231.780,328.111 231.962,325.228 234.287 C 323.923 235.339,322.843 236.477,322.828 236.816 C 322.812 237.155,322.080 238.228,321.200 239.200 C 320.130 240.382,319.675 241.206,319.827 241.684 C 320.025 242.308,319.792 242.400,318.027 242.400 L 316.000 242.400 316.000 244.357 C 316.000 246.701,316.169 246.800,320.200 246.800 C 321.814 246.800,323.419 246.691,323.767 246.557 C 324.612 246.233,324.660 242.875,323.824 242.554 C 322.941 242.215,325.768 239.869,326.688 240.178 C 327.903 240.586,330.252 242.836,329.700 243.062 C 329.326 243.215,329.200 245.106,329.200 250.584 C 329.200 258.842,329.176 258.910,326.278 258.967 C 324.781 258.996,324.585 258.892,324.460 258.000 C 324.145 255.756,316.391 255.589,315.832 257.815 C 315.559 258.901,312.048 260.208,311.506 259.425 C 311.344 259.191,311.209 254.815,311.206 249.700 C 311.199 239.228,310.966 239.846,314.414 241.206 C 316.979 242.217,317.340 241.995,317.105 239.548 L 316.917 237.600 318.810 237.600 C 321.085 237.600,321.525 237.156,321.825 234.560 C 322.310 230.361,322.155 230.499,325.580 231.233 M299.200 231.424 C 299.200 231.547,299.920 233.135,300.800 234.953 C 301.680 236.771,302.400 238.540,302.400 238.883 C 302.400 240.072,304.311 240.934,305.685 240.365 C 309.275 238.878,307.746 234.398,302.888 232.169 C 300.909 231.261,299.200 230.916,299.200 231.424 M303.767 233.151 C 307.753 235.277,308.457 240.000,304.787 240.000 C 303.487 240.000,303.164 239.624,302.211 237.000 C 301.812 235.900,301.038 234.226,300.493 233.280 L 299.500 231.560 300.650 231.831 C 301.283 231.980,302.685 232.574,303.767 233.151 M168.846 232.476 C 168.781 233.429,168.309 233.646,163.800 234.793 C 160.011 235.757,159.748 235.893,158.800 237.375 C 157.816 238.914,150.374 242.962,146.000 244.336 C 141.817 245.651,142.081 245.533,143.245 245.568 C 145.911 245.649,157.999 239.710,159.017 237.820 C 159.815 236.338,160.455 236.058,166.000 234.769 C 168.546 234.178,169.354 233.595,169.085 232.547 C 168.925 231.925,168.885 231.914,168.846 232.476 M89.714 239.200 C 89.705 242.610,89.826 247.290,89.982 249.600 C 90.256 253.659,90.267 253.579,90.288 247.200 C 90.300 243.570,90.180 238.890,90.020 236.800 C 89.745 233.207,89.729 233.338,89.714 239.200 M330.736 235.700 C 332.958 237.480,332.860 237.600,329.166 237.600 L 325.933 237.600 327.200 236.000 C 328.728 234.071,328.705 234.073,330.736 235.700 M280.748 240.434 C 283.531 242.650,283.405 242.800,278.763 242.800 L 274.726 242.800 276.400 240.800 C 278.414 238.394,278.208 238.412,280.748 240.434 M323.800 244.600 L 323.800 246.200 320.200 246.200 L 316.600 246.200 316.470 245.066 C 316.222 242.898,316.468 242.758,320.293 242.884 L 323.800 243.000 323.800 244.600 M139.800 246.000 L 139.000 246.344 139.800 246.344 C 140.240 246.344,140.960 246.189,141.400 246.000 L 142.200 245.656 141.400 245.656 C 140.960 245.656,140.240 245.811,139.800 246.000 M133.851 247.432 C 130.520 248.308,129.255 248.800,130.335 248.800 C 130.935 248.800,138.545 246.782,138.767 246.564 C 139.128 246.208,137.235 246.543,133.851 247.432 M269.124 248.500 C 271.008 252.706,275.222 256.809,280.305 259.387 C 282.921 260.713,283.685 261.600,282.212 261.600 C 281.499 261.600,279.664 263.804,279.357 265.031 C 278.430 268.724,271.143 258.867,268.987 251.003 C 267.664 246.179,267.709 245.342,269.124 248.500 M316.000 249.200 C 316.000 250.711,316.147 251.200,316.600 251.200 C 316.930 251.200,317.200 251.380,317.200 251.600 C 317.200 251.820,316.930 252.000,316.600 252.000 C 316.147 252.000,316.000 252.489,316.000 254.000 C 316.000 255.650,316.122 255.994,316.700 255.968 C 317.118 255.950,317.199 255.856,316.900 255.735 C 316.620 255.622,316.400 254.847,316.400 253.974 C 316.400 252.098,316.877 251.901,321.008 252.080 L 323.800 252.200 323.800 254.101 C 323.800 255.146,323.935 256.001,324.100 256.001 C 324.624 256.000,324.436 252.084,323.900 251.833 C 323.500 251.647,323.500 251.553,323.900 251.367 C 324.201 251.226,324.400 250.349,324.400 249.167 L 324.400 247.200 320.200 247.200 L 316.000 247.200 316.000 249.200 M323.923 249.300 L 323.800 251.000 321.008 251.120 C 317.009 251.293,316.400 251.073,316.400 249.459 C 316.400 247.634,316.475 247.600,320.490 247.600 L 324.046 247.600 323.923 249.300 M126.801 249.366 C 125.175 249.953,124.830 251.101,124.869 255.800 C 124.898 259.237,125.116 258.551,125.505 253.800 L 125.800 250.200 127.800 249.532 C 128.900 249.165,129.440 248.863,129.000 248.863 C 128.560 248.862,127.570 249.088,126.801 249.366 M90.523 268.200 C 90.513 272.380,90.630 277.870,90.783 280.400 C 91.047 284.750,91.062 284.598,91.077 277.600 C 91.085 273.530,90.967 268.040,90.816 265.400 C 90.553 260.817,90.539 260.944,90.523 268.200 M124.300 263.159 C 124.135 264.566,124.022 266.726,124.049 267.959 L 124.098 270.200 124.456 267.800 C 124.653 266.480,124.766 264.320,124.707 263.000 L 124.600 260.600 124.300 263.159 M314.245 261.277 C 315.100 261.429,319.442 261.564,323.894 261.577 L 331.988 261.600 331.196 262.900 C 330.760 263.615,330.403 264.380,330.403 264.600 C 330.403 264.820,330.740 264.460,331.151 263.800 C 331.562 263.140,332.282 262.335,332.749 262.012 C 333.217 261.688,333.600 261.328,333.600 261.212 C 333.600 261.095,328.895 261.000,323.145 261.000 C 317.395 261.000,313.390 261.125,314.245 261.277 M123.500 274.359 C 123.335 275.766,123.222 278.016,123.249 279.359 L 123.298 281.800 123.656 279.400 C 123.853 278.080,123.966 275.830,123.907 274.400 L 123.800 271.800 123.500 274.359 M122.647 287.232 C 122.465 289.339,122.393 291.409,122.489 291.832 C 122.737 292.930,123.296 286.916,123.124 285.000 C 123.028 283.933,122.869 284.677,122.647 287.232 M301.822 284.090 C 301.734 284.371,301.450 285.590,301.190 286.800 C 300.628 289.420,298.627 295.474,297.796 297.068 C 297.047 298.503,297.051 298.800,297.819 298.800 C 298.664 298.800,304.012 293.356,304.991 291.500 C 306.194 289.218,307.200 289.466,307.200 292.043 C 307.200 294.033,307.173 294.080,306.182 293.831 C 304.609 293.436,304.343 293.896,305.209 295.512 C 306.436 297.801,306.325 297.934,303.400 297.699 L 300.800 297.490 300.800 308.922 C 300.800 321.550,300.652 320.904,303.413 320.320 C 306.098 319.752,305.987 320.225,305.994 309.324 C 306.000 299.262,306.135 298.475,307.625 299.823 C 308.338 300.468,308.400 301.111,308.400 307.838 C 308.400 315.870,308.380 315.809,310.866 315.389 C 312.184 315.166,312.587 314.888,312.939 313.956 C 313.501 312.468,316.549 312.195,316.916 313.600 C 317.318 315.138,321.441 314.319,321.792 312.631 C 321.887 312.174,322.026 309.489,322.102 306.664 L 322.239 301.527 320.588 300.392 L 318.938 299.256 317.807 300.228 C 316.552 301.306,314.491 301.498,311.900 300.779 C 310.469 300.382,309.943 299.530,310.800 299.000 C 311.404 298.627,311.280 296.894,310.573 295.815 C 309.987 294.921,310.000 294.828,310.764 294.419 C 312.270 293.613,312.585 292.446,311.640 291.168 C 311.178 290.544,310.800 289.935,310.800 289.816 C 310.800 289.470,315.532 289.567,315.749 289.917 C 316.182 290.618,314.114 295.670,313.203 296.134 C 311.288 297.111,312.237 297.401,318.000 297.600 L 323.800 297.800 323.800 306.400 L 323.800 315.000 321.900 315.122 C 319.712 315.262,319.546 315.559,321.131 316.496 C 321.854 316.923,322.436 317.742,322.742 318.765 C 323.345 320.776,323.506 320.866,325.428 320.272 C 329.375 319.052,329.600 318.338,329.600 307.017 C 329.600 301.139,329.743 298.555,330.100 297.969 C 330.535 297.254,330.470 297.045,329.600 296.352 C 327.254 294.486,327.136 294.343,327.405 293.675 C 327.554 293.304,327.766 292.783,327.874 292.518 C 327.983 292.253,327.606 291.569,327.036 291.000 C 325.612 289.575,325.567 289.600,329.576 289.600 C 334.314 289.600,334.452 289.345,331.150 286.680 C 329.107 285.030,328.496 285.052,327.456 286.813 C 326.829 287.874,326.546 288.000,324.777 288.000 C 322.633 288.000,322.305 287.592,323.676 286.632 C 324.799 285.845,324.680 285.751,321.151 284.636 C 317.516 283.488,315.926 284.477,316.900 287.279 C 317.000 287.565,317.214 287.035,317.376 286.100 C 317.714 284.145,317.915 284.091,321.165 285.079 C 323.893 285.908,323.968 285.962,323.097 286.450 C 321.841 287.153,322.202 288.800,323.613 288.800 C 324.399 288.800,324.919 289.046,325.091 289.500 C 325.238 289.885,325.791 290.543,326.320 290.962 C 327.133 291.605,327.245 291.956,327.042 293.228 C 326.819 294.624,326.918 294.826,328.400 296.000 C 329.906 297.193,329.964 297.316,329.399 298.122 C 328.909 298.822,328.800 300.654,328.800 308.200 C 328.800 318.565,328.736 318.828,326.016 319.643 C 324.085 320.221,323.200 319.913,323.200 318.662 C 323.200 318.132,322.930 317.474,322.600 317.200 C 321.842 316.571,321.828 316.000,322.571 316.000 C 324.225 316.000,324.400 315.094,324.400 306.545 C 324.400 301.441,324.237 298.043,323.968 297.540 C 323.627 296.903,323.690 296.562,324.268 295.919 C 324.980 295.127,324.976 295.089,324.100 294.504 C 323.582 294.158,323.200 293.493,323.200 292.938 C 323.200 291.707,322.162 289.200,321.652 289.200 C 321.437 289.200,320.609 289.965,319.811 290.900 C 318.333 292.632,315.189 295.322,314.937 295.070 C 314.860 294.994,315.162 293.872,315.608 292.577 C 316.690 289.430,316.546 289.199,313.513 289.206 C 310.166 289.214,309.620 289.583,310.964 290.928 C 312.448 292.411,311.667 294.400,309.600 294.400 C 308.569 294.400,308.592 294.555,309.800 295.764 C 310.931 296.895,311.086 298.065,310.200 298.800 C 309.222 299.612,309.507 300.351,311.049 300.995 C 313.226 301.904,316.896 301.799,317.800 300.800 C 318.719 299.785,319.132 299.809,320.545 300.965 L 321.690 301.902 321.625 306.971 C 321.550 312.757,321.511 312.930,320.159 313.546 C 318.211 314.434,316.264 313.089,317.248 311.536 C 317.885 310.531,317.654 307.672,316.900 307.220 C 316.233 306.820,316.233 306.780,316.900 306.380 C 318.063 305.682,317.877 302.485,316.655 302.178 C 313.965 301.503,313.009 302.040,312.879 304.300 C 312.813 305.455,312.903 306.400,313.079 306.400 C 313.256 306.400,313.338 305.500,313.261 304.400 L 313.123 302.400 314.983 302.400 L 316.844 302.400 316.722 304.300 C 316.605 306.122,316.546 306.205,315.300 306.325 C 314.585 306.394,314.000 306.619,314.000 306.825 C 314.000 307.031,313.726 307.200,313.390 307.200 C 312.889 307.200,312.791 307.778,312.839 310.437 C 312.906 314.128,312.517 314.832,310.350 314.936 L 309.000 315.000 308.891 307.503 C 308.783 300.026,308.780 300.005,307.794 299.359 C 305.677 297.972,305.601 298.304,305.594 308.887 C 305.587 319.731,305.616 319.606,303.049 319.896 L 301.200 320.104 301.200 309.049 L 301.200 297.994 304.000 298.255 C 307.165 298.549,307.365 298.332,305.999 296.090 C 304.955 294.378,304.944 294.400,306.790 294.400 C 308.370 294.400,308.378 294.392,308.124 293.100 C 307.286 288.839,306.457 288.549,304.253 291.748 C 302.766 293.908,298.509 298.242,298.189 297.922 C 298.098 297.831,298.557 296.446,299.209 294.844 C 299.861 293.242,300.798 290.237,301.291 288.166 C 302.304 283.908,302.272 283.930,305.927 285.015 C 308.199 285.690,308.278 285.779,307.400 286.657 C 306.157 287.900,306.641 288.800,308.553 288.800 C 310.090 288.800,310.438 288.626,311.388 287.381 L 312.470 285.961 314.202 287.381 C 315.943 288.807,316.800 289.143,316.800 288.400 C 316.800 288.180,316.520 288.000,316.178 288.000 C 315.836 288.000,314.981 287.461,314.278 286.802 C 312.650 285.276,312.327 285.295,311.027 287.000 C 310.171 288.123,309.686 288.400,308.580 288.400 C 306.998 288.400,306.697 287.521,308.000 286.707 C 309.124 286.005,308.995 285.258,307.700 284.972 C 307.095 284.838,306.060 284.580,305.400 284.400 C 302.613 283.638,301.982 283.583,301.822 284.090 M275.462 285.813 L 273.924 287.589 261.495 287.694 C 251.984 287.775,249.027 287.917,248.900 288.300 C 248.772 288.685,250.113 288.800,254.743 288.800 C 258.048 288.800,260.855 288.965,260.979 289.167 C 261.368 289.796,255.681 295.070,253.283 296.304 C 250.660 297.653,250.528 298.180,252.020 301.354 C 252.688 302.775,253.069 303.179,253.554 302.984 C 254.378 302.654,261.588 300.800,262.051 300.800 C 262.243 300.800,262.400 302.240,262.400 304.000 L 262.400 307.200 256.800 307.200 C 253.720 307.200,251.200 307.344,251.200 307.520 C 251.200 308.547,252.403 308.800,257.294 308.800 L 262.428 308.800 262.314 312.900 L 262.200 317.000 255.000 317.200 C 250.498 317.325,247.837 317.550,247.900 317.800 C 248.018 318.274,283.603 318.577,283.594 318.104 C 283.577 317.287,279.220 313.600,278.271 313.600 C 277.932 313.600,276.990 314.410,276.179 315.400 L 274.704 317.200 271.759 317.200 C 268.280 317.200,268.295 317.223,268.481 312.199 L 268.600 309.000 273.800 308.902 C 281.790 308.752,282.284 308.416,278.601 305.636 C 275.536 303.322,275.504 303.320,273.961 305.381 C 272.635 307.154,272.549 307.198,270.600 307.100 L 268.600 307.000 268.477 305.069 C 268.408 303.997,268.562 302.887,268.822 302.574 C 269.781 301.417,268.955 300.800,266.446 300.800 C 265.113 300.800,264.004 300.612,263.924 300.372 C 263.776 299.928,255.368 301.668,253.919 302.443 C 253.270 302.790,253.046 302.552,252.180 300.594 C 251.023 297.977,251.037 297.936,253.475 296.724 C 255.761 295.586,261.776 289.928,261.519 289.155 C 261.377 288.728,259.959 288.550,255.367 288.384 C 250.794 288.218,252.310 288.148,261.858 288.084 L 274.317 288.000 275.858 286.190 L 277.400 284.380 279.800 286.290 L 282.200 288.200 273.200 288.419 C 268.250 288.540,264.155 288.675,264.100 288.719 C 263.700 289.042,264.199 289.582,265.300 290.019 C 267.713 290.976,267.750 291.204,265.700 292.511 C 264.655 293.178,262.514 294.313,260.942 295.033 C 258.321 296.233,257.268 297.001,257.679 297.412 C 257.924 297.658,272.275 296.524,272.766 296.221 C 273.475 295.783,273.280 295.291,271.700 293.537 L 270.200 291.871 271.899 292.140 C 277.729 293.064,282.524 297.720,280.626 300.616 C 279.451 302.410,277.862 301.972,276.217 299.400 C 275.172 297.766,274.577 297.207,273.905 297.225 C 273.013 297.250,273.012 297.256,273.841 297.591 C 274.304 297.778,275.198 298.745,275.828 299.741 C 277.280 302.036,278.430 302.612,279.971 301.815 C 284.352 299.550,280.080 293.731,272.606 291.785 C 268.940 290.830,268.623 291.284,271.200 293.800 C 273.332 295.882,273.471 295.775,267.900 296.324 C 261.959 296.909,259.200 296.933,259.200 296.400 C 259.200 296.180,259.382 296.000,259.604 296.000 C 260.277 296.000,263.692 294.328,265.472 293.128 C 266.392 292.507,267.442 292.000,267.805 292.000 C 268.859 292.000,268.275 291.070,266.674 290.200 C 264.283 288.900,264.792 288.800,273.800 288.800 C 283.691 288.800,283.746 288.774,279.999 285.864 C 277.110 283.620,277.359 283.623,275.462 285.813 M331.212 287.257 C 333.252 288.897,332.966 289.200,329.376 289.200 C 326.007 289.200,326.000 289.192,327.500 287.384 C 328.882 285.718,329.279 285.704,331.212 287.257 M322.322 292.101 C 322.411 293.487,322.652 294.107,323.222 294.412 C 325.258 295.501,324.121 296.000,319.600 296.000 C 314.987 296.000,314.477 295.799,316.321 294.710 C 316.937 294.346,318.242 293.153,319.221 292.059 C 321.453 289.563,322.159 289.573,322.322 292.101 M91.308 297.800 C 91.292 301.540,91.414 306.130,91.578 308.000 C 91.992 312.718,92.026 301.802,91.617 295.400 C 91.342 291.095,91.336 291.147,91.308 297.800 M121.997 295.700 C 121.987 299.247,121.517 301.174,120.682 301.086 C 119.763 300.988,119.044 302.896,119.304 304.743 C 119.411 305.505,119.542 305.219,119.775 303.720 C 120.090 301.693,120.127 301.645,121.249 301.870 L 122.400 302.100 122.400 298.250 C 122.400 296.132,122.310 294.400,122.200 294.400 C 122.090 294.400,121.998 294.985,121.997 295.700 M268.026 298.707 C 265.951 299.281,264.437 299.812,264.662 299.887 C 264.887 299.962,266.135 299.733,267.435 299.377 C 268.736 299.022,270.399 298.582,271.132 298.400 C 272.553 298.048,273.306 297.579,272.367 297.632 C 272.055 297.649,270.102 298.133,268.026 298.707 M266.618 301.400 L 268.235 301.642 268.069 304.253 C 267.970 305.806,268.077 307.037,268.333 307.293 C 268.623 307.583,268.634 307.962,268.367 308.461 C 268.150 308.867,268.023 311.045,268.086 313.300 L 268.200 317.400 271.642 317.515 L 275.084 317.629 276.442 315.827 C 277.189 314.836,277.949 314.019,278.130 314.012 C 278.586 313.995,282.800 317.318,282.800 317.695 C 282.800 317.863,275.015 317.961,265.500 317.914 C 253.535 317.855,250.421 317.762,255.400 317.614 L 262.600 317.400 262.655 312.400 C 262.685 309.650,262.730 305.901,262.755 304.068 L 262.800 300.736 263.900 300.947 C 264.505 301.063,265.728 301.266,266.618 301.400 M279.200 306.755 L 280.600 307.967 276.463 307.984 L 272.326 308.000 274.000 306.000 L 275.675 303.999 276.738 304.770 C 277.322 305.195,278.430 306.087,279.200 306.755 M118.484 306.615 C 118.201 306.937,117.546 307.200,117.030 307.200 C 115.935 307.200,115.442 308.115,113.796 313.200 C 112.467 317.308,112.272 317.546,108.279 319.921 C 105.704 321.452,104.747 322.319,103.107 324.600 C 100.468 328.273,100.619 328.144,99.654 327.541 C 98.484 326.811,95.935 330.869,96.935 331.869 C 97.040 331.973,97.422 331.040,97.784 329.795 C 98.270 328.122,98.594 327.592,99.021 327.765 C 99.340 327.894,99.825 328.088,100.100 328.196 C 100.838 328.485,101.284 328.061,103.132 325.319 C 104.895 322.703,105.933 321.801,109.748 319.572 C 112.554 317.932,112.846 317.528,114.193 313.400 C 115.928 308.084,115.950 308.047,117.648 307.538 C 118.502 307.283,119.200 306.832,119.200 306.537 C 119.200 305.874,119.131 305.882,118.484 306.615 M316.722 309.300 L 316.844 311.200 315.022 311.200 L 313.200 311.200 313.200 309.433 C 313.200 307.512,313.524 307.201,315.400 307.322 C 316.535 307.396,316.607 307.503,316.722 309.300 M92.111 320.000 C 92.102 322.530,92.225 325.770,92.386 327.200 C 92.796 330.852,92.821 322.730,92.412 318.400 C 92.141 315.522,92.129 315.587,92.111 320.000 M92.864 334.276 C 92.827 335.485,92.994 336.472,93.263 336.639 C 93.850 337.002,96.801 333.894,96.799 332.915 C 96.797 332.402,96.588 332.538,96.056 333.400 C 94.192 336.417,93.390 336.471,93.079 333.600 C 92.967 332.557,92.912 332.730,92.864 334.276 " stroke="none" fill="#c47c7c" fill-rule="evenodd"></path></g></svg>